M48
;Layer_Color=9474304
;FILE_FORMAT=4:3
METRIC
;TYPE=PLATED
T1F00S00C0.800
T2F00S00C0.889
T3F00S00C0.900
T4F00S00C1.000
T5F00S00C1.150
T6F00S00C1.200
T7F00S00C1.500
T8F00S00C2.000
%
T01
X0083820Y0054630
Y0057130
T02
X0091440Y0059055
Y0062230
T03
X0073660Y0053380
Y0058380
X0085090Y0086360
Y0088900
X0095250Y0087630
Y0085090
Y0082550
Y0080010
X0102870
Y0082550
Y0085090
Y0087630
T04
X0099060Y0063500
Y0066040
Y0068580
T05
X0099060Y0038855
X0119380Y0064080
X0124460
X0129540
Y0073080
X0124460
X0119380
Y0079320
X0124460
X0129540
X0114300
X0109220
Y0073080
X0104140
Y0064080
X0109220
X0114300
Y0073080
X0099060Y0057665
X0081970Y0064770
X0072970
X0109220Y0088320
X0114300
X0119380
X0124460
X0129540
T06
X0084540Y0101920
T07
X0081240Y0098620
X0087840
Y0105220
X0081240
T08
X0127000Y0043180
Y0055880
X0111700
Y0043180
X0086420
Y0073660
X0071120
Y0043180
X0111700Y0096520
Y0109220
X0127000
Y0096520
M30
