G04 Layer_Color=2752767*
%FSAX43Y43*%
%MOMM*%
G71*
G01*
G75*
%ADD10C,0.254*%
%ADD63C,0.127*%
%ADD64C,0.169*%
D10*
X0130898Y0116602D02*
G03*
X0128730Y0117500I-0002168J-0002168D01*
G01*
X0068732D02*
G03*
X0066629Y0116629I0000000J-0002975D01*
G01*
X0065898Y0115898D02*
G03*
X0065000Y0113730I0002168J-0002168D01*
G01*
Y0038770D02*
G03*
X0065898Y0036602I0003066J0000000D01*
G01*
X0066602Y0035898D02*
G03*
X0068770Y0035000I0002168J0002168D01*
G01*
X0128730D02*
G03*
X0130898Y0035898I0000000J0003066D01*
G01*
X0131602Y0036602D02*
G03*
X0132500Y0038770I-0002168J0002168D01*
G01*
Y0113730D02*
G03*
X0131602Y0115898I-0003066J0000000D01*
G01*
X0065898D02*
X0066629Y0116629D01*
X0065000Y0038770D02*
Y0113730D01*
X0065898Y0036602D02*
X0066602Y0035898D01*
X0068770Y0035000D02*
X0128730D01*
X0130898Y0035898D02*
X0131602Y0036602D01*
X0132500Y0038770D02*
Y0113730D01*
X0130898Y0116602D02*
X0131602Y0115898D01*
X0068732Y0117500D02*
X0128730D01*
D63*
X0072462Y0064262D02*
Y0065278D01*
X0073478D01*
Y0064262D01*
X0072462D01*
X0081462D02*
Y0065278D01*
X0082478D01*
Y0064262D01*
X0081462D01*
X0098552Y0038347D02*
Y0039363D01*
X0099568D01*
Y0038347D01*
X0098552D01*
Y0057157D02*
Y0058173D01*
X0099568D01*
Y0057157D01*
X0098552D01*
X0083820Y0054122D02*
X0083312Y0055138D01*
X0084328D01*
X0083820Y0054122D01*
Y0056622D02*
X0083312Y0057638D01*
X0084328D01*
X0083820Y0056622D01*
X0099060Y0068072D02*
X0099314Y0068326D01*
X0099568D01*
X0099314Y0068580D01*
X0099568Y0068834D01*
X0099314D01*
X0099060Y0069088D01*
X0098806Y0068834D01*
X0098552D01*
X0098806Y0068580D01*
X0098552Y0068326D01*
X0098806D01*
X0099060Y0068072D01*
Y0065532D02*
X0099314Y0065786D01*
X0099568D01*
X0099314Y0066040D01*
X0099568Y0066294D01*
X0099314D01*
X0099060Y0066548D01*
X0098806Y0066294D01*
X0098552D01*
X0098806Y0066040D01*
X0098552Y0065786D01*
X0098806D01*
X0099060Y0065532D01*
Y0062992D02*
X0099314Y0063246D01*
X0099568D01*
X0099314Y0063500D01*
X0099568Y0063754D01*
X0099314D01*
X0099060Y0064008D01*
X0098806Y0063754D01*
X0098552D01*
X0098806Y0063500D01*
X0098552Y0063246D01*
X0098806D01*
X0099060Y0062992D01*
X0070612Y0042672D02*
X0070866Y0043180D01*
X0070612Y0043688D01*
X0071120Y0043434D01*
X0071628Y0043688D01*
X0071374Y0043180D01*
X0071628Y0042672D01*
X0071120Y0042926D01*
X0070612Y0042672D01*
X0085912D02*
X0086166Y0043180D01*
X0085912Y0043688D01*
X0086420Y0043434D01*
X0086928Y0043688D01*
X0086674Y0043180D01*
X0086928Y0042672D01*
X0086420Y0042926D01*
X0085912Y0042672D01*
X0091186Y0058801D02*
Y0058547D01*
X0091694D01*
Y0058801D01*
X0091948D01*
Y0059309D01*
X0091694D01*
Y0059563D01*
X0091186D01*
Y0059309D01*
X0090932D01*
Y0058801D01*
X0091186D01*
Y0061976D02*
Y0061722D01*
X0091694D01*
Y0061976D01*
X0091948D01*
Y0062484D01*
X0091694D01*
Y0062738D01*
X0091186D01*
Y0062484D01*
X0090932D01*
Y0061976D01*
X0091186D01*
X0126492Y0042672D02*
X0126746Y0043180D01*
X0126492Y0043688D01*
X0127000Y0043434D01*
X0127508Y0043688D01*
X0127254Y0043180D01*
X0127508Y0042672D01*
X0127000Y0042926D01*
X0126492Y0042672D01*
X0111192D02*
X0111446Y0043180D01*
X0111192Y0043688D01*
X0111700Y0043434D01*
X0112208Y0043688D01*
X0111954Y0043180D01*
X0112208Y0042672D01*
X0111700Y0042926D01*
X0111192Y0042672D01*
X0070612Y0073152D02*
X0070866Y0073660D01*
X0070612Y0074168D01*
X0071120Y0073914D01*
X0071628Y0074168D01*
X0071374Y0073660D01*
X0071628Y0073152D01*
X0071120Y0073406D01*
X0070612Y0073152D01*
X0085912D02*
X0086166Y0073660D01*
X0085912Y0074168D01*
X0086420Y0073914D01*
X0086928Y0074168D01*
X0086674Y0073660D01*
X0086928Y0073152D01*
X0086420Y0073406D01*
X0085912Y0073152D01*
X0084032Y0101412D02*
X0084286D01*
X0084540Y0101666D01*
X0084794Y0101412D01*
X0085048D01*
Y0101666D01*
X0084794Y0101920D01*
X0085048Y0102174D01*
Y0102428D01*
X0084794D01*
X0084540Y0102174D01*
X0084286Y0102428D01*
X0084032D01*
Y0102174D01*
X0084286Y0101920D01*
X0084032Y0101666D01*
Y0101412D01*
X0087332Y0098620D02*
X0087840Y0099128D01*
X0088348Y0098620D01*
X0087840Y0098112D01*
X0087332Y0098620D01*
X0080732D02*
X0081240Y0099128D01*
X0081748Y0098620D01*
X0081240Y0098112D01*
X0080732Y0098620D01*
Y0105220D02*
X0081240Y0105728D01*
X0081748Y0105220D01*
X0081240Y0104712D01*
X0080732Y0105220D01*
X0087332D02*
X0087840Y0105728D01*
X0088348Y0105220D01*
X0087840Y0104712D01*
X0087332Y0105220D01*
X0126492Y0055372D02*
X0126746Y0055880D01*
X0126492Y0056388D01*
X0127000Y0056134D01*
X0127508Y0056388D01*
X0127254Y0055880D01*
X0127508Y0055372D01*
X0127000Y0055626D01*
X0126492Y0055372D01*
X0111192D02*
X0111446Y0055880D01*
X0111192Y0056388D01*
X0111700Y0056134D01*
X0112208Y0056388D01*
X0111954Y0055880D01*
X0112208Y0055372D01*
X0111700Y0055626D01*
X0111192Y0055372D01*
X0103632Y0063572D02*
Y0064588D01*
X0104648D01*
Y0063572D01*
X0103632D01*
Y0072572D02*
Y0073588D01*
X0104648D01*
Y0072572D01*
X0103632D01*
X0129032Y0063572D02*
Y0064588D01*
X0130048D01*
Y0063572D01*
X0129032D01*
Y0072572D02*
Y0073588D01*
X0130048D01*
Y0072572D01*
X0129032D01*
X0123952D02*
Y0073588D01*
X0124968D01*
Y0072572D01*
X0123952D01*
Y0063572D02*
Y0064588D01*
X0124968D01*
Y0063572D01*
X0123952D01*
X0118872D02*
Y0064588D01*
X0119888D01*
Y0063572D01*
X0118872D01*
Y0072572D02*
Y0073588D01*
X0119888D01*
Y0072572D01*
X0118872D01*
X0113792D02*
Y0073588D01*
X0114808D01*
Y0072572D01*
X0113792D01*
Y0063572D02*
Y0064588D01*
X0114808D01*
Y0063572D01*
X0113792D01*
X0108712D02*
Y0064588D01*
X0109728D01*
Y0063572D01*
X0108712D01*
Y0072572D02*
Y0073588D01*
X0109728D01*
Y0072572D01*
X0108712D01*
X0129032Y0078812D02*
Y0079828D01*
X0130048D01*
Y0078812D01*
X0129032D01*
Y0087812D02*
Y0088828D01*
X0130048D01*
Y0087812D01*
X0129032D01*
X0123952D02*
Y0088828D01*
X0124968D01*
Y0087812D01*
X0123952D01*
Y0078812D02*
Y0079828D01*
X0124968D01*
Y0078812D01*
X0123952D01*
X0118872D02*
Y0079828D01*
X0119888D01*
Y0078812D01*
X0118872D01*
Y0087812D02*
Y0088828D01*
X0119888D01*
Y0087812D01*
X0118872D01*
X0113792D02*
Y0088828D01*
X0114808D01*
Y0087812D01*
X0113792D01*
Y0078812D02*
Y0079828D01*
X0114808D01*
Y0078812D01*
X0113792D01*
X0108712D02*
Y0079828D01*
X0109728D01*
Y0078812D01*
X0108712D01*
Y0087812D02*
Y0088828D01*
X0109728D01*
Y0087812D01*
X0108712D01*
X0126492Y0096012D02*
X0126746Y0096520D01*
X0126492Y0097028D01*
X0127000Y0096774D01*
X0127508Y0097028D01*
X0127254Y0096520D01*
X0127508Y0096012D01*
X0127000Y0096266D01*
X0126492Y0096012D01*
X0111192D02*
X0111446Y0096520D01*
X0111192Y0097028D01*
X0111700Y0096774D01*
X0112208Y0097028D01*
X0111954Y0096520D01*
X0112208Y0096012D01*
X0111700Y0096266D01*
X0111192Y0096012D01*
X0126492Y0108712D02*
X0126746Y0109220D01*
X0126492Y0109728D01*
X0127000Y0109474D01*
X0127508Y0109728D01*
X0127254Y0109220D01*
X0127508Y0108712D01*
X0127000Y0108966D01*
X0126492Y0108712D01*
X0111192D02*
X0111446Y0109220D01*
X0111192Y0109728D01*
X0111700Y0109474D01*
X0112208Y0109728D01*
X0111954Y0109220D01*
X0112208Y0108712D01*
X0111700Y0108966D01*
X0111192Y0108712D01*
D64*
X0074168Y0053380D02*
G03*
X0074168Y0053380I-0000508J0000000D01*
G01*
Y0058380D02*
G03*
X0074168Y0058380I-0000508J0000000D01*
G01*
X0103378Y0080010D02*
G03*
X0103378Y0080010I-0000508J0000000D01*
G01*
Y0082550D02*
G03*
X0103378Y0082550I-0000508J0000000D01*
G01*
Y0085090D02*
G03*
X0103378Y0085090I-0000508J0000000D01*
G01*
Y0087630D02*
G03*
X0103378Y0087630I-0000508J0000000D01*
G01*
X0095758Y0080010D02*
G03*
X0095758Y0080010I-0000508J0000000D01*
G01*
Y0082550D02*
G03*
X0095758Y0082550I-0000508J0000000D01*
G01*
Y0085090D02*
G03*
X0095758Y0085090I-0000508J0000000D01*
G01*
Y0087630D02*
G03*
X0095758Y0087630I-0000508J0000000D01*
G01*
X0085598Y0086360D02*
G03*
X0085598Y0086360I-0000508J0000000D01*
G01*
Y0088900D02*
G03*
X0085598Y0088900I-0000508J0000000D01*
G01*
M02*
