G04 Layer_Physical_Order=2*
G04 Layer_Color=16711680*
%FSAX43Y43*%
%MOMM*%
G71*
G01*
G75*
%ADD10C,0.254*%
%ADD11R,2.500X2.500*%
%ADD12C,2.500*%
%ADD13O,1.800X2.500*%
%ADD14R,1.800X2.500*%
%ADD15C,1.600*%
%ADD16R,1.600X1.600*%
%ADD17R,1.600X1.600*%
%ADD18C,4.000*%
%ADD19C,1.524*%
%ADD20R,1.524X1.524*%
%ADD21O,2.500X1.800*%
%ADD22R,2.500X1.800*%
%ADD23C,3.600*%
%ADD24C,3.500*%
%ADD25R,2.500X2.500*%
%ADD26C,2.000*%
%ADD27R,2.000X2.000*%
%ADD28R,1.150X1.800*%
%ADD29R,1.350X1.900*%
%ADD30R,1.800X1.150*%
%ADD31C,1.000*%
G36*
X0129180Y0117470D02*
X0129476Y0117412D01*
X0129764Y0117324D01*
X0130042Y0117209D01*
X0130308Y0117067D01*
X0130559Y0116900D01*
X0130792Y0116708D01*
X0130898Y0116602D01*
X0130898Y0116602D01*
X0131602Y0115898D01*
X0131708Y0115792D01*
X0131900Y0115559D01*
X0132067Y0115308D01*
X0132209Y0115042D01*
X0132324Y0114764D01*
X0132412Y0114476D01*
X0132470Y0114180D01*
X0132500Y0113881D01*
Y0113730D01*
Y0038770D01*
Y0038619D01*
X0132470Y0038320D01*
X0132412Y0038024D01*
X0132324Y0037736D01*
X0132209Y0037458D01*
X0132067Y0037192D01*
X0131900Y0036941D01*
X0131708Y0036708D01*
X0131602Y0036602D01*
X0131602D01*
X0131602Y0036602D01*
X0130898Y0035898D01*
X0130792Y0035792D01*
X0130559Y0035600D01*
X0130308Y0035433D01*
X0130042Y0035291D01*
X0129764Y0035176D01*
X0129476Y0035088D01*
X0129180Y0035030D01*
X0128881Y0035000D01*
X0068619D01*
X0068320Y0035030D01*
X0068024Y0035088D01*
X0067736Y0035176D01*
X0067458Y0035291D01*
X0067192Y0035433D01*
X0066941Y0035600D01*
X0066708Y0035792D01*
X0066602Y0035898D01*
X0065898Y0036602D01*
X0065792Y0036708D01*
X0065600Y0036941D01*
X0065433Y0037192D01*
X0065291Y0037458D01*
X0065176Y0037736D01*
X0065088Y0038024D01*
X0065030Y0038320D01*
X0065000Y0038619D01*
Y0038770D01*
Y0113730D01*
Y0113881D01*
X0065030Y0114180D01*
X0065088Y0114476D01*
X0065176Y0114764D01*
X0065291Y0115042D01*
X0065433Y0115308D01*
X0065600Y0115559D01*
X0065792Y0115792D01*
X0065898Y0115898D01*
Y0115898D01*
X0066732Y0116732D01*
X0066958Y0116917D01*
X0067201Y0117080D01*
X0067459Y0117218D01*
X0067729Y0117329D01*
X0068009Y0117414D01*
X0068295Y0117471D01*
X0068586Y0117500D01*
X0128881D01*
X0129180Y0117470D01*
D02*
G37*
%LPC*%
G36*
X0102954Y0115953D02*
X0068453D01*
Y0112046D01*
X0102954D01*
Y0115953D01*
D02*
G37*
G36*
X0087967Y0107221D02*
Y0105347D01*
X0089841D01*
X0089815Y0105613D01*
X0089700Y0105991D01*
X0089514Y0106339D01*
X0089264Y0106644D01*
X0088959Y0106894D01*
X0088611Y0107080D01*
X0088233Y0107195D01*
X0087967Y0107221D01*
D02*
G37*
G36*
X0087713D02*
X0087447Y0107195D01*
X0087069Y0107080D01*
X0086721Y0106894D01*
X0086416Y0106644D01*
X0086166Y0106339D01*
X0085980Y0105991D01*
X0085865Y0105613D01*
X0085839Y0105347D01*
X0087713D01*
Y0107221D01*
D02*
G37*
G36*
X0081367D02*
Y0105347D01*
X0083241D01*
X0083215Y0105613D01*
X0083100Y0105991D01*
X0082914Y0106339D01*
X0082664Y0106644D01*
X0082359Y0106894D01*
X0082011Y0107080D01*
X0081633Y0107195D01*
X0081367Y0107221D01*
D02*
G37*
G36*
X0081113D02*
X0080847Y0107195D01*
X0080469Y0107080D01*
X0080121Y0106894D01*
X0079816Y0106644D01*
X0079566Y0106339D01*
X0079380Y0105991D01*
X0079265Y0105613D01*
X0079239Y0105347D01*
X0081113D01*
Y0107221D01*
D02*
G37*
G36*
X0089841Y0105093D02*
X0087967D01*
Y0103219D01*
X0088233Y0103245D01*
X0088611Y0103360D01*
X0088959Y0103546D01*
X0089264Y0103796D01*
X0089514Y0104101D01*
X0089700Y0104449D01*
X0089815Y0104827D01*
X0089841Y0105093D01*
D02*
G37*
G36*
X0087713D02*
X0085839D01*
X0085865Y0104827D01*
X0085980Y0104449D01*
X0086166Y0104101D01*
X0086416Y0103796D01*
X0086721Y0103546D01*
X0087069Y0103360D01*
X0087447Y0103245D01*
X0087713Y0103219D01*
Y0105093D01*
D02*
G37*
G36*
X0083241D02*
X0081367D01*
Y0103219D01*
X0081633Y0103245D01*
X0082011Y0103360D01*
X0082359Y0103546D01*
X0082664Y0103796D01*
X0082914Y0104101D01*
X0083100Y0104449D01*
X0083215Y0104827D01*
X0083241Y0105093D01*
D02*
G37*
G36*
X0081113D02*
X0079239D01*
X0079265Y0104827D01*
X0079380Y0104449D01*
X0079566Y0104101D01*
X0079816Y0103796D01*
X0080121Y0103546D01*
X0080469Y0103360D01*
X0080847Y0103245D01*
X0081113Y0103219D01*
Y0105093D01*
D02*
G37*
G36*
X0087967Y0100621D02*
Y0098747D01*
X0089841D01*
X0089815Y0099013D01*
X0089700Y0099391D01*
X0089514Y0099739D01*
X0089264Y0100044D01*
X0088959Y0100294D01*
X0088611Y0100480D01*
X0088233Y0100595D01*
X0087967Y0100621D01*
D02*
G37*
G36*
X0087713D02*
X0087447Y0100595D01*
X0087069Y0100480D01*
X0086721Y0100294D01*
X0086416Y0100044D01*
X0086166Y0099739D01*
X0085980Y0099391D01*
X0085865Y0099013D01*
X0085839Y0098747D01*
X0087713D01*
Y0100621D01*
D02*
G37*
G36*
X0081367D02*
Y0098747D01*
X0083241D01*
X0083215Y0099013D01*
X0083100Y0099391D01*
X0082914Y0099739D01*
X0082664Y0100044D01*
X0082359Y0100294D01*
X0082011Y0100480D01*
X0081633Y0100595D01*
X0081367Y0100621D01*
D02*
G37*
G36*
X0081113D02*
X0080847Y0100595D01*
X0080469Y0100480D01*
X0080121Y0100294D01*
X0079816Y0100044D01*
X0079566Y0099739D01*
X0079380Y0099391D01*
X0079265Y0099013D01*
X0079239Y0098747D01*
X0081113D01*
Y0100621D01*
D02*
G37*
G36*
X0098389Y0097674D02*
X0097687D01*
Y0096647D01*
X0098389D01*
Y0097674D01*
D02*
G37*
G36*
X0097433D02*
X0096731D01*
Y0096647D01*
X0097433D01*
Y0097674D01*
D02*
G37*
G36*
X0089841Y0098493D02*
X0087967D01*
Y0096619D01*
X0088233Y0096645D01*
X0088611Y0096760D01*
X0088959Y0096946D01*
X0089264Y0097196D01*
X0089514Y0097501D01*
X0089700Y0097849D01*
X0089815Y0098227D01*
X0089841Y0098493D01*
D02*
G37*
G36*
X0087713D02*
X0085839D01*
X0085865Y0098227D01*
X0085980Y0097849D01*
X0086166Y0097501D01*
X0086416Y0097196D01*
X0086721Y0096946D01*
X0087069Y0096760D01*
X0087447Y0096645D01*
X0087713Y0096619D01*
Y0098493D01*
D02*
G37*
G36*
X0083241D02*
X0081367D01*
Y0096619D01*
X0081633Y0096645D01*
X0082011Y0096760D01*
X0082359Y0096946D01*
X0082664Y0097196D01*
X0082914Y0097501D01*
X0083100Y0097849D01*
X0083215Y0098227D01*
X0083241Y0098493D01*
D02*
G37*
G36*
X0081113D02*
X0079239D01*
X0079265Y0098227D01*
X0079380Y0097849D01*
X0079566Y0097501D01*
X0079816Y0097196D01*
X0080121Y0096946D01*
X0080469Y0096760D01*
X0080847Y0096645D01*
X0081113Y0096619D01*
Y0098493D01*
D02*
G37*
G36*
X0098389Y0096393D02*
X0097687D01*
Y0095366D01*
X0098389D01*
Y0096393D01*
D02*
G37*
G36*
X0097433D02*
X0096731D01*
Y0095366D01*
X0097433D01*
Y0096393D01*
D02*
G37*
G36*
X0098389Y0095184D02*
X0097587D01*
Y0094107D01*
X0098389D01*
Y0095184D01*
D02*
G37*
G36*
X0097333D02*
X0096531D01*
Y0094107D01*
X0097333D01*
Y0095184D01*
D02*
G37*
G36*
X0098389Y0093853D02*
X0097587D01*
Y0092776D01*
X0098389D01*
Y0093853D01*
D02*
G37*
G36*
X0097333D02*
X0096531D01*
Y0092776D01*
X0097333D01*
Y0093853D01*
D02*
G37*
G36*
X0098389Y0092644D02*
X0097587D01*
Y0091567D01*
X0098389D01*
Y0092644D01*
D02*
G37*
G36*
X0097333D02*
X0096531D01*
Y0091567D01*
X0097333D01*
Y0092644D01*
D02*
G37*
G36*
X0098389Y0091313D02*
X0097587D01*
Y0090236D01*
X0098389D01*
Y0091313D01*
D02*
G37*
G36*
X0097333D02*
X0096531D01*
Y0090236D01*
X0097333D01*
Y0091313D01*
D02*
G37*
G36*
X0129540Y0089878D02*
X0129236Y0089848D01*
X0128944Y0089759D01*
X0128675Y0089615D01*
X0128439Y0089421D01*
X0128245Y0089185D01*
X0128171Y0089047D01*
X0125829D01*
X0125755Y0089185D01*
X0125561Y0089421D01*
X0125325Y0089615D01*
X0125056Y0089759D01*
X0124764Y0089848D01*
X0124460Y0089878D01*
X0124156Y0089848D01*
X0123864Y0089759D01*
X0123595Y0089615D01*
X0123359Y0089421D01*
X0123165Y0089185D01*
X0123021Y0088916D01*
X0122932Y0088624D01*
X0122902Y0088320D01*
X0122932Y0088016D01*
X0123021Y0087724D01*
X0123165Y0087455D01*
X0123359Y0087219D01*
X0123595Y0087025D01*
X0123864Y0086881D01*
X0124156Y0086792D01*
X0124460Y0086763D01*
X0124764Y0086792D01*
X0125056Y0086881D01*
X0125325Y0087025D01*
X0125561Y0087219D01*
X0125755Y0087455D01*
X0125851Y0087635D01*
X0128149D01*
X0128245Y0087455D01*
X0128439Y0087219D01*
X0128675Y0087025D01*
X0128944Y0086881D01*
X0129236Y0086792D01*
X0129540Y0086763D01*
X0129844Y0086792D01*
X0130136Y0086881D01*
X0130405Y0087025D01*
X0130641Y0087219D01*
X0130835Y0087455D01*
X0130979Y0087724D01*
X0131068Y0088016D01*
X0131098Y0088320D01*
X0131068Y0088624D01*
X0130979Y0088916D01*
X0130835Y0089185D01*
X0130641Y0089421D01*
X0130405Y0089615D01*
X0130136Y0089759D01*
X0129844Y0089848D01*
X0129540Y0089878D01*
D02*
G37*
G36*
X0119380D02*
X0119076Y0089848D01*
X0118784Y0089759D01*
X0118515Y0089615D01*
X0118279Y0089421D01*
X0118085Y0089185D01*
X0118011Y0089047D01*
X0115669D01*
X0115595Y0089185D01*
X0115401Y0089421D01*
X0115165Y0089615D01*
X0114896Y0089759D01*
X0114604Y0089848D01*
X0114300Y0089878D01*
X0113996Y0089848D01*
X0113704Y0089759D01*
X0113435Y0089615D01*
X0113199Y0089421D01*
X0113005Y0089185D01*
X0112861Y0088916D01*
X0112772Y0088624D01*
X0112743Y0088320D01*
X0112772Y0088016D01*
X0112861Y0087724D01*
X0113005Y0087455D01*
X0113199Y0087219D01*
X0113435Y0087025D01*
X0113704Y0086881D01*
X0113996Y0086792D01*
X0114300Y0086763D01*
X0114604Y0086792D01*
X0114896Y0086881D01*
X0115165Y0087025D01*
X0115401Y0087219D01*
X0115595Y0087455D01*
X0115691Y0087635D01*
X0117989D01*
X0118085Y0087455D01*
X0118279Y0087219D01*
X0118515Y0087025D01*
X0118784Y0086881D01*
X0119076Y0086792D01*
X0119380Y0086763D01*
X0119684Y0086792D01*
X0119976Y0086881D01*
X0120245Y0087025D01*
X0120481Y0087219D01*
X0120675Y0087455D01*
X0120819Y0087724D01*
X0120908Y0088016D01*
X0120938Y0088320D01*
X0120908Y0088624D01*
X0120819Y0088916D01*
X0120675Y0089185D01*
X0120481Y0089421D01*
X0120245Y0089615D01*
X0119976Y0089759D01*
X0119684Y0089848D01*
X0119380Y0089878D01*
D02*
G37*
G36*
X0101435Y0097720D02*
X0099685D01*
Y0095320D01*
X0099685D01*
X0099685Y0095230D01*
X0099685D01*
Y0092730D01*
X0099685D01*
Y0092690D01*
X0099685D01*
Y0090190D01*
X0099954D01*
Y0089840D01*
X0099978Y0089657D01*
X0100049Y0089487D01*
X0100161Y0089341D01*
X0101048Y0088453D01*
X0101000Y0088336D01*
X0096800D01*
Y0088830D01*
X0093700D01*
Y0086430D01*
X0096800D01*
Y0086924D01*
X0097084D01*
Y0076672D01*
X0091317Y0070905D01*
X0090240D01*
Y0070722D01*
X0090167Y0070712D01*
X0089997Y0070641D01*
X0089851Y0070529D01*
X0084798Y0065476D01*
X0083350D01*
X0083265Y0065635D01*
X0083071Y0065871D01*
X0082835Y0066065D01*
X0082566Y0066209D01*
X0082274Y0066298D01*
X0081970Y0066327D01*
X0081666Y0066298D01*
X0081374Y0066209D01*
X0081105Y0066065D01*
X0080869Y0065871D01*
X0080675Y0065635D01*
X0080531Y0065366D01*
X0080442Y0065074D01*
X0080413Y0064770D01*
X0080442Y0064466D01*
X0080531Y0064174D01*
X0080675Y0063905D01*
X0080869Y0063669D01*
X0081105Y0063475D01*
X0081264Y0063390D01*
Y0059086D01*
X0074860D01*
Y0059930D01*
X0072460D01*
Y0056830D01*
X0074860D01*
Y0057674D01*
X0082278D01*
X0082720Y0057231D01*
Y0056030D01*
X0084920D01*
Y0058230D01*
X0083718D01*
X0083069Y0058879D01*
X0082676Y0059272D01*
Y0063390D01*
X0082835Y0063475D01*
X0083071Y0063669D01*
X0083265Y0063905D01*
X0083350Y0064064D01*
X0085090D01*
X0085273Y0064088D01*
X0085443Y0064159D01*
X0085589Y0064271D01*
X0090473Y0069155D01*
X0092640D01*
Y0070231D01*
X0098289Y0075881D01*
X0098401Y0076027D01*
X0098472Y0076197D01*
X0098496Y0076380D01*
Y0086924D01*
X0101549D01*
X0101664Y0086774D01*
X0101915Y0086582D01*
X0102207Y0086461D01*
X0102487Y0086424D01*
Y0086296D01*
X0102207Y0086259D01*
X0101915Y0086138D01*
X0101664Y0085946D01*
X0101472Y0085695D01*
X0101351Y0085403D01*
X0101310Y0085090D01*
X0101351Y0084777D01*
X0101472Y0084485D01*
X0101664Y0084234D01*
X0101915Y0084042D01*
X0102164Y0083939D01*
Y0083701D01*
X0101915Y0083598D01*
X0101664Y0083406D01*
X0101472Y0083155D01*
X0101351Y0082863D01*
X0101310Y0082550D01*
X0101351Y0082237D01*
X0101368Y0082196D01*
X0099831Y0080658D01*
X0099719Y0080512D01*
X0099648Y0080342D01*
X0099624Y0080159D01*
Y0075222D01*
X0098561Y0074159D01*
X0098449Y0074013D01*
X0098378Y0073843D01*
X0098354Y0073660D01*
Y0069680D01*
X0097960D01*
Y0067514D01*
X0097790D01*
X0097712Y0067498D01*
X0097646Y0067454D01*
X0097602Y0067388D01*
X0097586Y0067310D01*
Y0064770D01*
X0097602Y0064692D01*
X0097646Y0064626D01*
X0097712Y0064582D01*
X0097790Y0064566D01*
X0098445D01*
X0098477Y0064439D01*
X0098275Y0064285D01*
X0098099Y0064055D01*
X0097988Y0063787D01*
X0097951Y0063500D01*
X0097988Y0063213D01*
X0098099Y0062945D01*
X0098275Y0062715D01*
X0098354Y0062655D01*
Y0059045D01*
X0098195Y0058960D01*
X0097959Y0058766D01*
X0097765Y0058530D01*
X0097621Y0058261D01*
X0097532Y0057969D01*
X0097503Y0057665D01*
X0097532Y0057361D01*
X0097621Y0057069D01*
X0097765Y0056800D01*
X0097959Y0056564D01*
X0098195Y0056370D01*
X0098464Y0056226D01*
X0098756Y0056137D01*
X0099060Y0056108D01*
X0099364Y0056137D01*
X0099656Y0056226D01*
X0099925Y0056370D01*
X0100161Y0056564D01*
X0100355Y0056800D01*
X0100499Y0057069D01*
X0100588Y0057361D01*
X0100618Y0057665D01*
X0100588Y0057969D01*
X0100499Y0058261D01*
X0100355Y0058530D01*
X0100161Y0058766D01*
X0099925Y0058960D01*
X0099766Y0059045D01*
Y0062655D01*
X0099845Y0062715D01*
X0100021Y0062945D01*
X0100132Y0063213D01*
X0100169Y0063500D01*
X0100132Y0063787D01*
X0100021Y0064055D01*
X0099845Y0064285D01*
X0099643Y0064439D01*
X0099675Y0064566D01*
X0100246D01*
X0101396Y0063416D01*
X0101396Y0058420D01*
X0101396Y0058420D01*
X0101412Y0058342D01*
X0101456Y0058276D01*
X0101456Y0058276D01*
X0109076Y0050656D01*
X0109142Y0050612D01*
X0109220Y0050596D01*
X0129540D01*
X0129618Y0050612D01*
X0129684Y0050656D01*
X0129728Y0050722D01*
X0129744Y0050800D01*
Y0060960D01*
X0129728Y0061038D01*
X0129684Y0061104D01*
X0129618Y0061148D01*
X0129540Y0061164D01*
X0109304D01*
X0106884Y0063584D01*
Y0067310D01*
X0106868Y0067388D01*
X0106824Y0067454D01*
X0106758Y0067498D01*
X0106680Y0067514D01*
X0100160D01*
Y0069680D01*
X0099766D01*
Y0073368D01*
X0100829Y0074431D01*
X0100941Y0074577D01*
X0101012Y0074747D01*
X0101036Y0074930D01*
Y0079867D01*
X0101243Y0080074D01*
X0101318Y0080037D01*
X0101356Y0080007D01*
X0101396Y0079709D01*
X0101512Y0079428D01*
X0101697Y0079187D01*
X0101938Y0079002D01*
X0102219Y0078886D01*
X0102520Y0078846D01*
X0102743D01*
Y0080010D01*
Y0081174D01*
X0102605D01*
X0102542Y0081301D01*
X0102572Y0081340D01*
X0103220D01*
X0103533Y0081381D01*
X0103825Y0081502D01*
X0104076Y0081694D01*
X0104268Y0081945D01*
X0104389Y0082237D01*
X0104430Y0082550D01*
X0104389Y0082863D01*
X0104268Y0083155D01*
X0104076Y0083406D01*
X0103825Y0083598D01*
X0103576Y0083701D01*
Y0083939D01*
X0103825Y0084042D01*
X0104076Y0084234D01*
X0104268Y0084485D01*
X0104389Y0084777D01*
X0104430Y0085090D01*
X0104389Y0085403D01*
X0104268Y0085695D01*
X0104076Y0085946D01*
X0103825Y0086138D01*
X0103533Y0086259D01*
X0103253Y0086296D01*
Y0086424D01*
X0103533Y0086461D01*
X0103825Y0086582D01*
X0104076Y0086774D01*
X0104268Y0087025D01*
X0104389Y0087317D01*
X0104430Y0087630D01*
X0104389Y0087943D01*
X0104268Y0088235D01*
X0104076Y0088486D01*
X0103825Y0088678D01*
X0103533Y0088799D01*
X0103220Y0088840D01*
X0102658D01*
X0101435Y0090063D01*
X0101488Y0090190D01*
X0101635D01*
Y0092690D01*
X0101635D01*
Y0092730D01*
X0101635D01*
Y0095230D01*
X0101524D01*
X0101435Y0095320D01*
Y0097720D01*
D02*
G37*
G36*
X0086338Y0086233D02*
X0085217D01*
Y0085112D01*
X0085417Y0085138D01*
X0085722Y0085265D01*
X0085984Y0085466D01*
X0086185Y0085728D01*
X0086312Y0086033D01*
X0086338Y0086233D01*
D02*
G37*
G36*
X0084963D02*
X0083842D01*
X0083868Y0086033D01*
X0083995Y0085728D01*
X0084196Y0085466D01*
X0084458Y0085265D01*
X0084763Y0085138D01*
X0084963Y0085112D01*
Y0086233D01*
D02*
G37*
G36*
X0129540Y0114504D02*
X0106680D01*
X0106602Y0114488D01*
X0106536Y0114444D01*
X0106492Y0114378D01*
X0106476Y0114300D01*
Y0085090D01*
X0106492Y0085012D01*
X0106536Y0084946D01*
X0106602Y0084902D01*
X0106680Y0084886D01*
X0111760D01*
X0111838Y0084902D01*
X0111904Y0084946D01*
X0111948Y0085012D01*
X0111964Y0085090D01*
Y0091236D01*
X0129540D01*
X0129618Y0091252D01*
X0129684Y0091296D01*
X0129728Y0091362D01*
X0129744Y0091440D01*
Y0106680D01*
Y0114300D01*
X0129728Y0114378D01*
X0129684Y0114444D01*
X0129618Y0114488D01*
X0129540Y0114504D01*
D02*
G37*
G36*
X0092848Y0082691D02*
X0091821D01*
Y0081989D01*
X0092848D01*
Y0082691D01*
D02*
G37*
G36*
X0091567D02*
X0090540D01*
Y0081989D01*
X0091567D01*
Y0082691D01*
D02*
G37*
G36*
X0084540Y0104030D02*
X0084128Y0103990D01*
X0083732Y0103870D01*
X0083368Y0103675D01*
X0083048Y0103412D01*
X0082785Y0103092D01*
X0082590Y0102728D01*
X0082470Y0102332D01*
X0082430Y0101920D01*
X0082470Y0101508D01*
X0082590Y0101112D01*
X0082785Y0100748D01*
X0083048Y0100428D01*
X0083368Y0100165D01*
X0083732Y0099970D01*
X0083834Y0099940D01*
Y0090720D01*
X0083858Y0090537D01*
X0083929Y0090367D01*
X0083959Y0090327D01*
X0083897Y0090200D01*
X0083790D01*
Y0087600D01*
X0084475D01*
X0084500Y0087473D01*
X0084458Y0087455D01*
X0084196Y0087254D01*
X0083995Y0086992D01*
X0083868Y0086687D01*
X0083842Y0086487D01*
X0085090D01*
X0086338D01*
X0086312Y0086687D01*
X0086185Y0086992D01*
X0085984Y0087254D01*
X0085722Y0087455D01*
X0085680Y0087473D01*
X0085705Y0087600D01*
X0086390D01*
Y0087706D01*
X0086507Y0087754D01*
X0089671Y0084591D01*
X0089817Y0084479D01*
X0089987Y0084408D01*
X0090170Y0084384D01*
X0090494D01*
Y0083887D01*
X0092894D01*
Y0084384D01*
X0093929D01*
X0094044Y0084234D01*
X0094295Y0084042D01*
X0094587Y0083921D01*
X0094867Y0083884D01*
Y0083756D01*
X0094587Y0083719D01*
X0094295Y0083598D01*
X0094044Y0083406D01*
X0093852Y0083155D01*
X0093731Y0082863D01*
X0093690Y0082550D01*
X0093731Y0082237D01*
X0093852Y0081945D01*
X0094044Y0081694D01*
X0094295Y0081502D01*
X0094587Y0081381D01*
X0094900Y0081340D01*
X0095600D01*
X0095913Y0081381D01*
X0096205Y0081502D01*
X0096456Y0081694D01*
X0096648Y0081945D01*
X0096769Y0082237D01*
X0096810Y0082550D01*
X0096769Y0082863D01*
X0096648Y0083155D01*
X0096456Y0083406D01*
X0096205Y0083598D01*
X0095913Y0083719D01*
X0095633Y0083756D01*
Y0083884D01*
X0095913Y0083921D01*
X0096205Y0084042D01*
X0096456Y0084234D01*
X0096648Y0084485D01*
X0096769Y0084777D01*
X0096810Y0085090D01*
X0096769Y0085403D01*
X0096648Y0085695D01*
X0096456Y0085946D01*
X0096205Y0086138D01*
X0095913Y0086259D01*
X0095600Y0086300D01*
X0094900D01*
X0094587Y0086259D01*
X0094295Y0086138D01*
X0094044Y0085946D01*
X0093929Y0085796D01*
X0090462D01*
X0086390Y0089868D01*
Y0090200D01*
X0086058D01*
X0085246Y0091012D01*
Y0099940D01*
X0085348Y0099970D01*
X0085712Y0100165D01*
X0086032Y0100428D01*
X0086295Y0100748D01*
X0086490Y0101112D01*
X0086610Y0101508D01*
X0086650Y0101920D01*
X0086610Y0102332D01*
X0086490Y0102728D01*
X0086295Y0103092D01*
X0086032Y0103412D01*
X0085712Y0103675D01*
X0085348Y0103870D01*
X0084952Y0103990D01*
X0084540Y0104030D01*
D02*
G37*
G36*
X0092848Y0081735D02*
X0091821D01*
Y0081033D01*
X0092848D01*
Y0081735D01*
D02*
G37*
G36*
X0091567D02*
X0090540D01*
Y0081033D01*
X0091567D01*
Y0081735D01*
D02*
G37*
G36*
X0103220Y0081174D02*
X0102997D01*
Y0080137D01*
X0104367D01*
X0104344Y0080311D01*
X0104228Y0080592D01*
X0104043Y0080833D01*
X0103802Y0081018D01*
X0103521Y0081134D01*
X0103220Y0081174D01*
D02*
G37*
G36*
X0095600D02*
X0095377D01*
Y0080137D01*
X0096747D01*
X0096724Y0080311D01*
X0096608Y0080592D01*
X0096423Y0080833D01*
X0096182Y0081018D01*
X0095901Y0081134D01*
X0095600Y0081174D01*
D02*
G37*
G36*
X0095123D02*
X0094900D01*
X0094599Y0081134D01*
X0094318Y0081018D01*
X0094077Y0080833D01*
X0093892Y0080592D01*
X0093776Y0080311D01*
X0093753Y0080137D01*
X0095123D01*
Y0081174D01*
D02*
G37*
G36*
X0124460Y0080877D02*
X0124156Y0080848D01*
X0123864Y0080759D01*
X0123595Y0080615D01*
X0123359Y0080421D01*
X0123165Y0080185D01*
X0123082Y0080030D01*
X0120758D01*
X0120675Y0080185D01*
X0120481Y0080421D01*
X0120245Y0080615D01*
X0119976Y0080759D01*
X0119684Y0080848D01*
X0119380Y0080877D01*
X0119076Y0080848D01*
X0118784Y0080759D01*
X0118515Y0080615D01*
X0118279Y0080421D01*
X0118085Y0080185D01*
X0117941Y0079916D01*
X0117852Y0079624D01*
X0117823Y0079320D01*
X0117852Y0079016D01*
X0117941Y0078724D01*
X0118085Y0078455D01*
X0118279Y0078219D01*
X0118515Y0078025D01*
X0118784Y0077881D01*
X0119076Y0077792D01*
X0119380Y0077762D01*
X0119684Y0077792D01*
X0119976Y0077881D01*
X0120245Y0078025D01*
X0120481Y0078219D01*
X0120675Y0078455D01*
X0120762Y0078618D01*
X0123078D01*
X0123165Y0078455D01*
X0123359Y0078219D01*
X0123595Y0078025D01*
X0123864Y0077881D01*
X0124156Y0077792D01*
X0124460Y0077762D01*
X0124764Y0077792D01*
X0125056Y0077881D01*
X0125325Y0078025D01*
X0125561Y0078219D01*
X0125755Y0078455D01*
X0125899Y0078724D01*
X0125988Y0079016D01*
X0126018Y0079320D01*
X0125988Y0079624D01*
X0125899Y0079916D01*
X0125755Y0080185D01*
X0125561Y0080421D01*
X0125325Y0080615D01*
X0125056Y0080759D01*
X0124764Y0080848D01*
X0124460Y0080877D01*
D02*
G37*
G36*
X0114300D02*
X0113996Y0080848D01*
X0113704Y0080759D01*
X0113435Y0080615D01*
X0113199Y0080421D01*
X0113005Y0080185D01*
X0112920Y0080026D01*
X0110600D01*
X0110515Y0080185D01*
X0110321Y0080421D01*
X0110085Y0080615D01*
X0109816Y0080759D01*
X0109524Y0080848D01*
X0109220Y0080877D01*
X0108916Y0080848D01*
X0108624Y0080759D01*
X0108355Y0080615D01*
X0108119Y0080421D01*
X0107925Y0080185D01*
X0107781Y0079916D01*
X0107692Y0079624D01*
X0107662Y0079320D01*
X0107692Y0079016D01*
X0107781Y0078724D01*
X0107925Y0078455D01*
X0108119Y0078219D01*
X0108355Y0078025D01*
X0108624Y0077881D01*
X0108916Y0077792D01*
X0109220Y0077762D01*
X0109524Y0077792D01*
X0109816Y0077881D01*
X0110085Y0078025D01*
X0110321Y0078219D01*
X0110515Y0078455D01*
X0110600Y0078614D01*
X0112920D01*
X0113005Y0078455D01*
X0113199Y0078219D01*
X0113435Y0078025D01*
X0113704Y0077881D01*
X0113996Y0077792D01*
X0114300Y0077762D01*
X0114604Y0077792D01*
X0114896Y0077881D01*
X0115165Y0078025D01*
X0115401Y0078219D01*
X0115595Y0078455D01*
X0115739Y0078724D01*
X0115828Y0079016D01*
X0115857Y0079320D01*
X0115828Y0079624D01*
X0115739Y0079916D01*
X0115595Y0080185D01*
X0115401Y0080421D01*
X0115165Y0080615D01*
X0114896Y0080759D01*
X0114604Y0080848D01*
X0114300Y0080877D01*
D02*
G37*
G36*
X0104367Y0079883D02*
X0102997D01*
Y0078846D01*
X0103220D01*
X0103521Y0078886D01*
X0103802Y0079002D01*
X0104043Y0079187D01*
X0104228Y0079428D01*
X0104344Y0079709D01*
X0104367Y0079883D01*
D02*
G37*
G36*
X0096747D02*
X0095377D01*
Y0078846D01*
X0095600D01*
X0095901Y0078886D01*
X0096182Y0079002D01*
X0096423Y0079187D01*
X0096608Y0079428D01*
X0096724Y0079709D01*
X0096747Y0079883D01*
D02*
G37*
G36*
X0095123D02*
X0093753D01*
X0093776Y0079709D01*
X0093892Y0079428D01*
X0094077Y0079187D01*
X0094318Y0079002D01*
X0094599Y0078886D01*
X0094900Y0078846D01*
X0095123D01*
Y0079883D01*
D02*
G37*
G36*
X0086420Y0075971D02*
X0085969Y0075927D01*
X0085536Y0075795D01*
X0085136Y0075582D01*
X0084786Y0075294D01*
X0084498Y0074944D01*
X0084285Y0074544D01*
X0084231Y0074366D01*
X0073309D01*
X0073255Y0074544D01*
X0073042Y0074944D01*
X0072754Y0075294D01*
X0072404Y0075582D01*
X0072004Y0075795D01*
X0071571Y0075927D01*
X0071120Y0075971D01*
X0070669Y0075927D01*
X0070236Y0075795D01*
X0069836Y0075582D01*
X0069486Y0075294D01*
X0069198Y0074944D01*
X0068985Y0074544D01*
X0068853Y0074111D01*
X0068809Y0073660D01*
X0068853Y0073209D01*
X0068985Y0072776D01*
X0069198Y0072376D01*
X0069486Y0072026D01*
X0069836Y0071738D01*
X0070236Y0071525D01*
X0070414Y0071471D01*
Y0066620D01*
X0070438Y0066437D01*
X0070509Y0066267D01*
X0070621Y0066121D01*
X0071420Y0065322D01*
Y0063220D01*
X0074520D01*
Y0066320D01*
X0072418D01*
X0071826Y0066912D01*
Y0071471D01*
X0072004Y0071525D01*
X0072404Y0071738D01*
X0072754Y0072026D01*
X0073042Y0072376D01*
X0073255Y0072776D01*
X0073309Y0072954D01*
X0084231D01*
X0084285Y0072776D01*
X0084498Y0072376D01*
X0084786Y0072026D01*
X0085136Y0071738D01*
X0085536Y0071525D01*
X0085969Y0071393D01*
X0086420Y0071349D01*
X0086871Y0071393D01*
X0087304Y0071525D01*
X0087704Y0071738D01*
X0088054Y0072026D01*
X0088342Y0072376D01*
X0088555Y0072776D01*
X0088687Y0073209D01*
X0088731Y0073660D01*
X0088687Y0074111D01*
X0088555Y0074544D01*
X0088342Y0074944D01*
X0088054Y0075294D01*
X0087704Y0075582D01*
X0087304Y0075795D01*
X0086871Y0075927D01*
X0086420Y0075971D01*
D02*
G37*
G36*
X0114300Y0074638D02*
X0113996Y0074608D01*
X0113704Y0074519D01*
X0113435Y0074375D01*
X0113199Y0074181D01*
X0113005Y0073945D01*
X0112931Y0073807D01*
X0110589D01*
X0110515Y0073945D01*
X0110321Y0074181D01*
X0110085Y0074375D01*
X0109816Y0074519D01*
X0109524Y0074608D01*
X0109220Y0074638D01*
X0108916Y0074608D01*
X0108624Y0074519D01*
X0108355Y0074375D01*
X0108119Y0074181D01*
X0107925Y0073945D01*
X0107781Y0073676D01*
X0107692Y0073384D01*
X0107662Y0073080D01*
X0107692Y0072776D01*
X0107781Y0072484D01*
X0107925Y0072215D01*
X0108119Y0071979D01*
X0108355Y0071785D01*
X0108624Y0071641D01*
X0108916Y0071552D01*
X0109220Y0071523D01*
X0109524Y0071552D01*
X0109816Y0071641D01*
X0110085Y0071785D01*
X0110321Y0071979D01*
X0110515Y0072215D01*
X0110611Y0072395D01*
X0112909D01*
X0113005Y0072215D01*
X0113199Y0071979D01*
X0113435Y0071785D01*
X0113704Y0071641D01*
X0113996Y0071552D01*
X0114300Y0071523D01*
X0114604Y0071552D01*
X0114896Y0071641D01*
X0115165Y0071785D01*
X0115401Y0071979D01*
X0115595Y0072215D01*
X0115739Y0072484D01*
X0115828Y0072776D01*
X0115857Y0073080D01*
X0115828Y0073384D01*
X0115739Y0073676D01*
X0115595Y0073945D01*
X0115401Y0074181D01*
X0115165Y0074375D01*
X0114896Y0074519D01*
X0114604Y0074608D01*
X0114300Y0074638D01*
D02*
G37*
G36*
X0124460D02*
X0124156Y0074608D01*
X0123864Y0074519D01*
X0123595Y0074375D01*
X0123359Y0074181D01*
X0123165Y0073945D01*
X0123080Y0073786D01*
X0120760D01*
X0120675Y0073945D01*
X0120481Y0074181D01*
X0120245Y0074375D01*
X0119976Y0074519D01*
X0119684Y0074608D01*
X0119380Y0074638D01*
X0119076Y0074608D01*
X0118784Y0074519D01*
X0118515Y0074375D01*
X0118279Y0074181D01*
X0118085Y0073945D01*
X0117941Y0073676D01*
X0117852Y0073384D01*
X0117823Y0073080D01*
X0117852Y0072776D01*
X0117941Y0072484D01*
X0118085Y0072215D01*
X0118279Y0071979D01*
X0118515Y0071785D01*
X0118784Y0071641D01*
X0119076Y0071552D01*
X0119380Y0071523D01*
X0119684Y0071552D01*
X0119976Y0071641D01*
X0120245Y0071785D01*
X0120481Y0071979D01*
X0120675Y0072215D01*
X0120760Y0072374D01*
X0123080D01*
X0123165Y0072215D01*
X0123359Y0071979D01*
X0123595Y0071785D01*
X0123864Y0071641D01*
X0124156Y0071552D01*
X0124460Y0071523D01*
X0124764Y0071552D01*
X0125056Y0071641D01*
X0125325Y0071785D01*
X0125561Y0071979D01*
X0125755Y0072215D01*
X0125899Y0072484D01*
X0125988Y0072776D01*
X0126018Y0073080D01*
X0125988Y0073384D01*
X0125899Y0073676D01*
X0125755Y0073945D01*
X0125561Y0074181D01*
X0125325Y0074375D01*
X0125056Y0074519D01*
X0124764Y0074608D01*
X0124460Y0074638D01*
D02*
G37*
G36*
X0129540Y0080877D02*
X0129236Y0080848D01*
X0128944Y0080759D01*
X0128675Y0080615D01*
X0128439Y0080421D01*
X0128245Y0080185D01*
X0128101Y0079916D01*
X0128012Y0079624D01*
X0127982Y0079320D01*
X0128012Y0079016D01*
X0128101Y0078724D01*
X0128245Y0078455D01*
X0128439Y0078219D01*
X0128675Y0078025D01*
X0128834Y0077940D01*
Y0074460D01*
X0128675Y0074375D01*
X0128439Y0074181D01*
X0128245Y0073945D01*
X0128101Y0073676D01*
X0128012Y0073384D01*
X0127982Y0073080D01*
X0128012Y0072776D01*
X0128101Y0072484D01*
X0128245Y0072215D01*
X0128439Y0071979D01*
X0128675Y0071785D01*
X0128944Y0071641D01*
X0129236Y0071552D01*
X0129540Y0071523D01*
X0129844Y0071552D01*
X0130136Y0071641D01*
X0130405Y0071785D01*
X0130641Y0071979D01*
X0130835Y0072215D01*
X0130979Y0072484D01*
X0131068Y0072776D01*
X0131098Y0073080D01*
X0131068Y0073384D01*
X0130979Y0073676D01*
X0130835Y0073945D01*
X0130641Y0074181D01*
X0130405Y0074375D01*
X0130246Y0074460D01*
Y0077940D01*
X0130405Y0078025D01*
X0130641Y0078219D01*
X0130835Y0078455D01*
X0130979Y0078724D01*
X0131068Y0079016D01*
X0131098Y0079320D01*
X0131068Y0079624D01*
X0130979Y0079916D01*
X0130835Y0080185D01*
X0130641Y0080421D01*
X0130405Y0080615D01*
X0130136Y0080759D01*
X0129844Y0080848D01*
X0129540Y0080877D01*
D02*
G37*
G36*
X0119380Y0065637D02*
X0119076Y0065608D01*
X0118784Y0065519D01*
X0118515Y0065375D01*
X0118279Y0065181D01*
X0118085Y0064945D01*
X0118002Y0064790D01*
X0115678D01*
X0115595Y0064945D01*
X0115401Y0065181D01*
X0115165Y0065375D01*
X0114896Y0065519D01*
X0114604Y0065608D01*
X0114300Y0065637D01*
X0113996Y0065608D01*
X0113704Y0065519D01*
X0113435Y0065375D01*
X0113199Y0065181D01*
X0113005Y0064945D01*
X0112861Y0064676D01*
X0112772Y0064384D01*
X0112743Y0064080D01*
X0112772Y0063776D01*
X0112861Y0063484D01*
X0113005Y0063215D01*
X0113199Y0062979D01*
X0113435Y0062785D01*
X0113704Y0062641D01*
X0113996Y0062552D01*
X0114300Y0062522D01*
X0114604Y0062552D01*
X0114896Y0062641D01*
X0115165Y0062785D01*
X0115401Y0062979D01*
X0115595Y0063215D01*
X0115682Y0063378D01*
X0117998D01*
X0118085Y0063215D01*
X0118279Y0062979D01*
X0118515Y0062785D01*
X0118784Y0062641D01*
X0119076Y0062552D01*
X0119380Y0062522D01*
X0119684Y0062552D01*
X0119976Y0062641D01*
X0120245Y0062785D01*
X0120481Y0062979D01*
X0120675Y0063215D01*
X0120819Y0063484D01*
X0120908Y0063776D01*
X0120938Y0064080D01*
X0120908Y0064384D01*
X0120819Y0064676D01*
X0120675Y0064945D01*
X0120481Y0065181D01*
X0120245Y0065375D01*
X0119976Y0065519D01*
X0119684Y0065608D01*
X0119380Y0065637D01*
D02*
G37*
G36*
X0129540D02*
X0129236Y0065608D01*
X0128944Y0065519D01*
X0128675Y0065375D01*
X0128439Y0065181D01*
X0128245Y0064945D01*
X0128160Y0064786D01*
X0125840D01*
X0125755Y0064945D01*
X0125561Y0065181D01*
X0125325Y0065375D01*
X0125056Y0065519D01*
X0124764Y0065608D01*
X0124460Y0065637D01*
X0124156Y0065608D01*
X0123864Y0065519D01*
X0123595Y0065375D01*
X0123359Y0065181D01*
X0123165Y0064945D01*
X0123021Y0064676D01*
X0122932Y0064384D01*
X0122902Y0064080D01*
X0122932Y0063776D01*
X0123021Y0063484D01*
X0123165Y0063215D01*
X0123359Y0062979D01*
X0123595Y0062785D01*
X0123864Y0062641D01*
X0124156Y0062552D01*
X0124460Y0062522D01*
X0124764Y0062552D01*
X0125056Y0062641D01*
X0125325Y0062785D01*
X0125561Y0062979D01*
X0125755Y0063215D01*
X0125840Y0063374D01*
X0128160D01*
X0128245Y0063215D01*
X0128439Y0062979D01*
X0128675Y0062785D01*
X0128944Y0062641D01*
X0129236Y0062552D01*
X0129540Y0062522D01*
X0129844Y0062552D01*
X0130136Y0062641D01*
X0130405Y0062785D01*
X0130641Y0062979D01*
X0130835Y0063215D01*
X0130979Y0063484D01*
X0131068Y0063776D01*
X0131098Y0064080D01*
X0131068Y0064384D01*
X0130979Y0064676D01*
X0130835Y0064945D01*
X0130641Y0065181D01*
X0130405Y0065375D01*
X0130136Y0065519D01*
X0129844Y0065608D01*
X0129540Y0065637D01*
D02*
G37*
G36*
X0104140Y0074638D02*
X0103836Y0074608D01*
X0103544Y0074519D01*
X0103275Y0074375D01*
X0103039Y0074181D01*
X0102845Y0073945D01*
X0102701Y0073676D01*
X0102612Y0073384D01*
X0102582Y0073080D01*
X0102612Y0072776D01*
X0102701Y0072484D01*
X0102845Y0072215D01*
X0103039Y0071979D01*
X0103275Y0071785D01*
X0103544Y0071641D01*
X0103836Y0071552D01*
X0104140Y0071523D01*
X0104444Y0071552D01*
X0104617Y0071605D01*
X0108514Y0067708D01*
Y0065460D01*
X0108355Y0065375D01*
X0108119Y0065181D01*
X0107925Y0064945D01*
X0107781Y0064676D01*
X0107692Y0064384D01*
X0107662Y0064080D01*
X0107692Y0063776D01*
X0107781Y0063484D01*
X0107925Y0063215D01*
X0108119Y0062979D01*
X0108355Y0062785D01*
X0108624Y0062641D01*
X0108916Y0062552D01*
X0109220Y0062522D01*
X0109524Y0062552D01*
X0109816Y0062641D01*
X0110085Y0062785D01*
X0110321Y0062979D01*
X0110515Y0063215D01*
X0110659Y0063484D01*
X0110748Y0063776D01*
X0110777Y0064080D01*
X0110748Y0064384D01*
X0110659Y0064676D01*
X0110515Y0064945D01*
X0110321Y0065181D01*
X0110085Y0065375D01*
X0109926Y0065460D01*
Y0068000D01*
X0109902Y0068183D01*
X0109831Y0068353D01*
X0109719Y0068499D01*
X0105615Y0072603D01*
X0105668Y0072776D01*
X0105698Y0073080D01*
X0105668Y0073384D01*
X0105579Y0073676D01*
X0105435Y0073945D01*
X0105241Y0074181D01*
X0105005Y0074375D01*
X0104736Y0074519D01*
X0104444Y0074608D01*
X0104140Y0074638D01*
D02*
G37*
G36*
X0092640Y0068005D02*
X0090240D01*
Y0066255D01*
X0090734D01*
Y0063292D01*
X0090378D01*
Y0061168D01*
X0092502D01*
Y0063292D01*
X0092146D01*
Y0066255D01*
X0092640D01*
Y0068005D01*
D02*
G37*
G36*
X0091567Y0060063D02*
Y0059182D01*
X0092448D01*
X0092430Y0059320D01*
X0092327Y0059567D01*
X0092165Y0059780D01*
X0091952Y0059942D01*
X0091705Y0060045D01*
X0091567Y0060063D01*
D02*
G37*
G36*
X0091313D02*
X0091175Y0060045D01*
X0090928Y0059942D01*
X0090715Y0059780D01*
X0090553Y0059567D01*
X0090450Y0059320D01*
X0090432Y0059182D01*
X0091313D01*
Y0060063D01*
D02*
G37*
G36*
X0092448Y0058928D02*
X0091567D01*
Y0058047D01*
X0091705Y0058065D01*
X0091952Y0058168D01*
X0092165Y0058330D01*
X0092327Y0058543D01*
X0092430Y0058790D01*
X0092448Y0058928D01*
D02*
G37*
G36*
X0091313D02*
X0090432D01*
X0090450Y0058790D01*
X0090553Y0058543D01*
X0090715Y0058330D01*
X0090928Y0058168D01*
X0091175Y0058065D01*
X0091313Y0058047D01*
Y0058928D01*
D02*
G37*
G36*
X0083947Y0055676D02*
Y0054757D01*
X0084866D01*
X0084847Y0054905D01*
X0084741Y0055162D01*
X0084572Y0055382D01*
X0084352Y0055551D01*
X0084095Y0055657D01*
X0083947Y0055676D01*
D02*
G37*
G36*
X0083693D02*
X0083545Y0055657D01*
X0083288Y0055551D01*
X0083068Y0055382D01*
X0082899Y0055162D01*
X0082793Y0054905D01*
X0082774Y0054757D01*
X0083693D01*
Y0055676D01*
D02*
G37*
G36*
X0084866Y0054503D02*
X0083947D01*
Y0053584D01*
X0084095Y0053603D01*
X0084352Y0053709D01*
X0084572Y0053878D01*
X0084741Y0054098D01*
X0084847Y0054355D01*
X0084866Y0054503D01*
D02*
G37*
G36*
X0083693D02*
X0082774D01*
X0082793Y0054355D01*
X0082899Y0054098D01*
X0083068Y0053878D01*
X0083288Y0053709D01*
X0083545Y0053603D01*
X0083693Y0053584D01*
Y0054503D01*
D02*
G37*
G36*
X0073787Y0054877D02*
Y0053507D01*
X0074824D01*
Y0053730D01*
X0074784Y0054031D01*
X0074668Y0054312D01*
X0074483Y0054553D01*
X0074242Y0054738D01*
X0073961Y0054854D01*
X0073787Y0054877D01*
D02*
G37*
G36*
X0073533D02*
X0073359Y0054854D01*
X0073078Y0054738D01*
X0072837Y0054553D01*
X0072652Y0054312D01*
X0072536Y0054031D01*
X0072496Y0053730D01*
Y0053507D01*
X0073533D01*
Y0054877D01*
D02*
G37*
G36*
X0074824Y0053253D02*
X0073787D01*
Y0051883D01*
X0073961Y0051906D01*
X0074242Y0052022D01*
X0074483Y0052207D01*
X0074668Y0052448D01*
X0074784Y0052729D01*
X0074824Y0053030D01*
Y0053253D01*
D02*
G37*
G36*
X0073533D02*
X0072496D01*
Y0053030D01*
X0072536Y0052729D01*
X0072652Y0052448D01*
X0072837Y0052207D01*
X0073078Y0052022D01*
X0073359Y0051906D01*
X0073533Y0051883D01*
Y0053253D01*
D02*
G37*
G36*
X0086547Y0045432D02*
Y0043307D01*
X0088672D01*
X0088641Y0043622D01*
X0088512Y0044047D01*
X0088303Y0044438D01*
X0088022Y0044782D01*
X0087678Y0045063D01*
X0087287Y0045272D01*
X0086862Y0045401D01*
X0086547Y0045432D01*
D02*
G37*
G36*
X0071247D02*
Y0043307D01*
X0073372D01*
X0073341Y0043622D01*
X0073213Y0044047D01*
X0073003Y0044438D01*
X0072722Y0044782D01*
X0072378Y0045063D01*
X0071987Y0045272D01*
X0071562Y0045401D01*
X0071247Y0045432D01*
D02*
G37*
G36*
X0127127D02*
Y0043307D01*
X0129252D01*
X0129221Y0043622D01*
X0129092Y0044047D01*
X0128883Y0044438D01*
X0128602Y0044782D01*
X0128258Y0045063D01*
X0127867Y0045272D01*
X0127442Y0045401D01*
X0127127Y0045432D01*
D02*
G37*
G36*
X0126873D02*
X0126558Y0045401D01*
X0126133Y0045272D01*
X0125742Y0045063D01*
X0125398Y0044782D01*
X0125117Y0044438D01*
X0124908Y0044047D01*
X0124779Y0043622D01*
X0124748Y0043307D01*
X0126873D01*
Y0045432D01*
D02*
G37*
G36*
X0111827D02*
Y0043307D01*
X0113952D01*
X0113921Y0043622D01*
X0113793Y0044047D01*
X0113583Y0044438D01*
X0113302Y0044782D01*
X0112958Y0045063D01*
X0112567Y0045272D01*
X0112142Y0045401D01*
X0111827Y0045432D01*
D02*
G37*
G36*
X0111573D02*
X0111258Y0045401D01*
X0110833Y0045272D01*
X0110442Y0045063D01*
X0110098Y0044782D01*
X0109817Y0044438D01*
X0109607Y0044047D01*
X0109479Y0043622D01*
X0109448Y0043307D01*
X0111573D01*
Y0045432D01*
D02*
G37*
G36*
X0086293D02*
X0085978Y0045401D01*
X0085553Y0045272D01*
X0085162Y0045063D01*
X0084818Y0044782D01*
X0084537Y0044438D01*
X0084327Y0044047D01*
X0084199Y0043622D01*
X0084168Y0043307D01*
X0086293D01*
Y0045432D01*
D02*
G37*
G36*
X0070993D02*
X0070678Y0045401D01*
X0070253Y0045272D01*
X0069862Y0045063D01*
X0069518Y0044782D01*
X0069237Y0044438D01*
X0069027Y0044047D01*
X0068899Y0043622D01*
X0068868Y0043307D01*
X0070993D01*
Y0045432D01*
D02*
G37*
G36*
X0088672Y0043053D02*
X0086547D01*
Y0040928D01*
X0086862Y0040959D01*
X0087287Y0041088D01*
X0087678Y0041297D01*
X0088022Y0041578D01*
X0088303Y0041922D01*
X0088512Y0042313D01*
X0088641Y0042738D01*
X0088672Y0043053D01*
D02*
G37*
G36*
X0073372D02*
X0071247D01*
Y0040928D01*
X0071562Y0040959D01*
X0071987Y0041088D01*
X0072378Y0041297D01*
X0072722Y0041578D01*
X0073003Y0041922D01*
X0073213Y0042313D01*
X0073341Y0042738D01*
X0073372Y0043053D01*
D02*
G37*
G36*
X0129252D02*
X0127127D01*
Y0040928D01*
X0127442Y0040959D01*
X0127867Y0041088D01*
X0128258Y0041297D01*
X0128602Y0041578D01*
X0128883Y0041922D01*
X0129092Y0042313D01*
X0129221Y0042738D01*
X0129252Y0043053D01*
D02*
G37*
G36*
X0126873D02*
X0124748D01*
X0124779Y0042738D01*
X0124908Y0042313D01*
X0125117Y0041922D01*
X0125398Y0041578D01*
X0125742Y0041297D01*
X0126133Y0041088D01*
X0126558Y0040959D01*
X0126873Y0040928D01*
Y0043053D01*
D02*
G37*
G36*
X0113952D02*
X0111827D01*
Y0040928D01*
X0112142Y0040959D01*
X0112567Y0041088D01*
X0112958Y0041297D01*
X0113302Y0041578D01*
X0113583Y0041922D01*
X0113793Y0042313D01*
X0113921Y0042738D01*
X0113952Y0043053D01*
D02*
G37*
G36*
X0111573D02*
X0109448D01*
X0109479Y0042738D01*
X0109607Y0042313D01*
X0109817Y0041922D01*
X0110098Y0041578D01*
X0110442Y0041297D01*
X0110833Y0041088D01*
X0111258Y0040959D01*
X0111573Y0040928D01*
Y0043053D01*
D02*
G37*
G36*
X0086293D02*
X0084168D01*
X0084199Y0042738D01*
X0084327Y0042313D01*
X0084537Y0041922D01*
X0084818Y0041578D01*
X0085162Y0041297D01*
X0085553Y0041088D01*
X0085978Y0040959D01*
X0086293Y0040928D01*
Y0043053D01*
D02*
G37*
G36*
X0070993D02*
X0068868D01*
X0068899Y0042738D01*
X0069027Y0042313D01*
X0069237Y0041922D01*
X0069518Y0041578D01*
X0069862Y0041297D01*
X0070253Y0041088D01*
X0070678Y0040959D01*
X0070993Y0040928D01*
Y0043053D01*
D02*
G37*
G36*
X0099187Y0040354D02*
Y0038982D01*
X0100559D01*
X0100542Y0039150D01*
X0100456Y0039433D01*
X0100317Y0039695D01*
X0100129Y0039924D01*
X0099900Y0040112D01*
X0099638Y0040251D01*
X0099355Y0040337D01*
X0099187Y0040354D01*
D02*
G37*
G36*
X0098933D02*
X0098765Y0040337D01*
X0098482Y0040251D01*
X0098220Y0040112D01*
X0097991Y0039924D01*
X0097803Y0039695D01*
X0097664Y0039433D01*
X0097578Y0039150D01*
X0097561Y0038982D01*
X0098933D01*
Y0040354D01*
D02*
G37*
G36*
X0100559Y0038728D02*
X0099187D01*
Y0037356D01*
X0099355Y0037373D01*
X0099638Y0037459D01*
X0099900Y0037598D01*
X0100129Y0037786D01*
X0100317Y0038015D01*
X0100456Y0038277D01*
X0100542Y0038560D01*
X0100559Y0038728D01*
D02*
G37*
G36*
X0098933D02*
X0097561D01*
X0097578Y0038560D01*
X0097664Y0038277D01*
X0097803Y0038015D01*
X0097991Y0037786D01*
X0098220Y0037598D01*
X0098482Y0037459D01*
X0098765Y0037373D01*
X0098933Y0037356D01*
Y0038728D01*
D02*
G37*
%LPD*%
G36*
X0106680Y0063500D02*
X0109220Y0060960D01*
X0129540D01*
Y0050800D01*
X0109220D01*
X0101600Y0058420D01*
X0101600Y0063500D01*
X0100330Y0064770D01*
X0097790D01*
Y0067310D01*
X0106680D01*
Y0063500D01*
D02*
G37*
%LPC*%
G36*
X0099187Y0067086D02*
Y0066167D01*
X0100106D01*
X0100087Y0066315D01*
X0099981Y0066572D01*
X0099812Y0066792D01*
X0099592Y0066961D01*
X0099335Y0067067D01*
X0099187Y0067086D01*
D02*
G37*
G36*
X0098933D02*
X0098785Y0067067D01*
X0098528Y0066961D01*
X0098308Y0066792D01*
X0098139Y0066572D01*
X0098033Y0066315D01*
X0098014Y0066167D01*
X0098933D01*
Y0067086D01*
D02*
G37*
G36*
X0100106Y0065913D02*
X0099187D01*
Y0064994D01*
X0099335Y0065013D01*
X0099592Y0065119D01*
X0099812Y0065288D01*
X0099981Y0065508D01*
X0100087Y0065765D01*
X0100106Y0065913D01*
D02*
G37*
G36*
X0098933D02*
X0098014D01*
X0098033Y0065765D01*
X0098139Y0065508D01*
X0098308Y0065288D01*
X0098528Y0065119D01*
X0098785Y0065013D01*
X0098933Y0064994D01*
Y0065913D01*
D02*
G37*
G36*
X0105644Y0065584D02*
X0104267D01*
Y0064207D01*
X0105644D01*
Y0065584D01*
D02*
G37*
G36*
X0104013D02*
X0102636D01*
Y0064207D01*
X0104013D01*
Y0065584D01*
D02*
G37*
G36*
X0105644Y0063953D02*
X0104267D01*
Y0062576D01*
X0105644D01*
Y0063953D01*
D02*
G37*
G36*
X0104013D02*
X0102636D01*
Y0062576D01*
X0104013D01*
Y0063953D01*
D02*
G37*
G36*
X0127127Y0058132D02*
Y0056007D01*
X0129252D01*
X0129221Y0056322D01*
X0129092Y0056747D01*
X0128883Y0057138D01*
X0128602Y0057482D01*
X0128258Y0057763D01*
X0127867Y0057972D01*
X0127442Y0058101D01*
X0127127Y0058132D01*
D02*
G37*
G36*
X0126873D02*
X0126558Y0058101D01*
X0126133Y0057972D01*
X0125742Y0057763D01*
X0125398Y0057482D01*
X0125117Y0057138D01*
X0124908Y0056747D01*
X0124779Y0056322D01*
X0124748Y0056007D01*
X0126873D01*
Y0058132D01*
D02*
G37*
G36*
X0111827D02*
Y0056007D01*
X0113952D01*
X0113921Y0056322D01*
X0113793Y0056747D01*
X0113583Y0057138D01*
X0113302Y0057482D01*
X0112958Y0057763D01*
X0112567Y0057972D01*
X0112142Y0058101D01*
X0111827Y0058132D01*
D02*
G37*
G36*
X0111573D02*
X0111258Y0058101D01*
X0110833Y0057972D01*
X0110442Y0057763D01*
X0110098Y0057482D01*
X0109817Y0057138D01*
X0109607Y0056747D01*
X0109479Y0056322D01*
X0109448Y0056007D01*
X0111573D01*
Y0058132D01*
D02*
G37*
G36*
X0129252Y0055753D02*
X0127127D01*
Y0053628D01*
X0127442Y0053659D01*
X0127867Y0053787D01*
X0128258Y0053997D01*
X0128602Y0054278D01*
X0128883Y0054622D01*
X0129092Y0055013D01*
X0129221Y0055438D01*
X0129252Y0055753D01*
D02*
G37*
G36*
X0126873D02*
X0124748D01*
X0124779Y0055438D01*
X0124908Y0055013D01*
X0125117Y0054622D01*
X0125398Y0054278D01*
X0125742Y0053997D01*
X0126133Y0053787D01*
X0126558Y0053659D01*
X0126873Y0053628D01*
Y0055753D01*
D02*
G37*
G36*
X0113952D02*
X0111827D01*
Y0053628D01*
X0112142Y0053659D01*
X0112567Y0053787D01*
X0112958Y0053997D01*
X0113302Y0054278D01*
X0113583Y0054622D01*
X0113793Y0055013D01*
X0113921Y0055438D01*
X0113952Y0055753D01*
D02*
G37*
G36*
X0111573D02*
X0109448D01*
X0109479Y0055438D01*
X0109607Y0055013D01*
X0109817Y0054622D01*
X0110098Y0054278D01*
X0110442Y0053997D01*
X0110833Y0053787D01*
X0111258Y0053659D01*
X0111573Y0053628D01*
Y0055753D01*
D02*
G37*
%LPD*%
G36*
X0129540Y0106680D02*
Y0091440D01*
X0111760D01*
Y0085090D01*
X0106680D01*
Y0114300D01*
X0129540D01*
Y0106680D01*
D02*
G37*
%LPC*%
G36*
X0127127Y0111472D02*
Y0109347D01*
X0129252D01*
X0129221Y0109662D01*
X0129092Y0110087D01*
X0128883Y0110478D01*
X0128602Y0110822D01*
X0128258Y0111103D01*
X0127867Y0111312D01*
X0127442Y0111441D01*
X0127127Y0111472D01*
D02*
G37*
G36*
X0126873D02*
X0126558Y0111441D01*
X0126133Y0111312D01*
X0125742Y0111103D01*
X0125398Y0110822D01*
X0125117Y0110478D01*
X0124908Y0110087D01*
X0124779Y0109662D01*
X0124748Y0109347D01*
X0126873D01*
Y0111472D01*
D02*
G37*
G36*
X0111827D02*
Y0109347D01*
X0113952D01*
X0113921Y0109662D01*
X0113793Y0110087D01*
X0113583Y0110478D01*
X0113302Y0110822D01*
X0112958Y0111103D01*
X0112567Y0111312D01*
X0112142Y0111441D01*
X0111827Y0111472D01*
D02*
G37*
G36*
X0111573D02*
X0111258Y0111441D01*
X0110833Y0111312D01*
X0110442Y0111103D01*
X0110098Y0110822D01*
X0109817Y0110478D01*
X0109607Y0110087D01*
X0109479Y0109662D01*
X0109448Y0109347D01*
X0111573D01*
Y0111472D01*
D02*
G37*
G36*
X0129252Y0109093D02*
X0127127D01*
Y0106968D01*
X0127442Y0106999D01*
X0127867Y0107128D01*
X0128258Y0107337D01*
X0128602Y0107618D01*
X0128883Y0107962D01*
X0129092Y0108353D01*
X0129221Y0108778D01*
X0129252Y0109093D01*
D02*
G37*
G36*
X0126873D02*
X0124748D01*
X0124779Y0108778D01*
X0124908Y0108353D01*
X0125117Y0107962D01*
X0125398Y0107618D01*
X0125742Y0107337D01*
X0126133Y0107128D01*
X0126558Y0106999D01*
X0126873Y0106968D01*
Y0109093D01*
D02*
G37*
G36*
X0113952D02*
X0111827D01*
Y0106968D01*
X0112142Y0106999D01*
X0112567Y0107128D01*
X0112958Y0107337D01*
X0113302Y0107618D01*
X0113583Y0107962D01*
X0113793Y0108353D01*
X0113921Y0108778D01*
X0113952Y0109093D01*
D02*
G37*
G36*
X0111573D02*
X0109448D01*
X0109479Y0108778D01*
X0109607Y0108353D01*
X0109817Y0107962D01*
X0110098Y0107618D01*
X0110442Y0107337D01*
X0110833Y0107128D01*
X0111258Y0106999D01*
X0111573Y0106968D01*
Y0109093D01*
D02*
G37*
G36*
X0127127Y0098772D02*
Y0096647D01*
X0129252D01*
X0129221Y0096962D01*
X0129092Y0097387D01*
X0128883Y0097778D01*
X0128602Y0098122D01*
X0128258Y0098403D01*
X0127867Y0098613D01*
X0127442Y0098741D01*
X0127127Y0098772D01*
D02*
G37*
G36*
X0126873D02*
X0126558Y0098741D01*
X0126133Y0098613D01*
X0125742Y0098403D01*
X0125398Y0098122D01*
X0125117Y0097778D01*
X0124908Y0097387D01*
X0124779Y0096962D01*
X0124748Y0096647D01*
X0126873D01*
Y0098772D01*
D02*
G37*
G36*
X0111827D02*
Y0096647D01*
X0113952D01*
X0113921Y0096962D01*
X0113793Y0097387D01*
X0113583Y0097778D01*
X0113302Y0098122D01*
X0112958Y0098403D01*
X0112567Y0098613D01*
X0112142Y0098741D01*
X0111827Y0098772D01*
D02*
G37*
G36*
X0111573D02*
X0111258Y0098741D01*
X0110833Y0098613D01*
X0110442Y0098403D01*
X0110098Y0098122D01*
X0109817Y0097778D01*
X0109607Y0097387D01*
X0109479Y0096962D01*
X0109448Y0096647D01*
X0111573D01*
Y0098772D01*
D02*
G37*
G36*
X0129252Y0096393D02*
X0127127D01*
Y0094268D01*
X0127442Y0094299D01*
X0127867Y0094427D01*
X0128258Y0094637D01*
X0128602Y0094918D01*
X0128883Y0095262D01*
X0129092Y0095653D01*
X0129221Y0096078D01*
X0129252Y0096393D01*
D02*
G37*
G36*
X0126873D02*
X0124748D01*
X0124779Y0096078D01*
X0124908Y0095653D01*
X0125117Y0095262D01*
X0125398Y0094918D01*
X0125742Y0094637D01*
X0126133Y0094427D01*
X0126558Y0094299D01*
X0126873Y0094268D01*
Y0096393D01*
D02*
G37*
G36*
X0113952D02*
X0111827D01*
Y0094268D01*
X0112142Y0094299D01*
X0112567Y0094427D01*
X0112958Y0094637D01*
X0113302Y0094918D01*
X0113583Y0095262D01*
X0113793Y0095653D01*
X0113921Y0096078D01*
X0113952Y0096393D01*
D02*
G37*
G36*
X0111573D02*
X0109448D01*
X0109479Y0096078D01*
X0109607Y0095653D01*
X0109817Y0095262D01*
X0110098Y0094918D01*
X0110442Y0094637D01*
X0110833Y0094427D01*
X0111258Y0094299D01*
X0111573Y0094268D01*
Y0096393D01*
D02*
G37*
G36*
X0109347Y0089819D02*
Y0088447D01*
X0110719D01*
X0110702Y0088615D01*
X0110616Y0088898D01*
X0110477Y0089160D01*
X0110289Y0089389D01*
X0110060Y0089577D01*
X0109798Y0089716D01*
X0109515Y0089802D01*
X0109347Y0089819D01*
D02*
G37*
G36*
X0109093D02*
X0108925Y0089802D01*
X0108642Y0089716D01*
X0108380Y0089577D01*
X0108151Y0089389D01*
X0107963Y0089160D01*
X0107824Y0088898D01*
X0107738Y0088615D01*
X0107721Y0088447D01*
X0109093D01*
Y0089819D01*
D02*
G37*
G36*
X0110719Y0088193D02*
X0109347D01*
Y0086821D01*
X0109515Y0086838D01*
X0109798Y0086924D01*
X0110060Y0087063D01*
X0110289Y0087251D01*
X0110477Y0087480D01*
X0110616Y0087742D01*
X0110702Y0088025D01*
X0110719Y0088193D01*
D02*
G37*
G36*
X0109093D02*
X0107721D01*
X0107738Y0088025D01*
X0107824Y0087742D01*
X0107963Y0087480D01*
X0108151Y0087251D01*
X0108380Y0087063D01*
X0108642Y0086924D01*
X0108925Y0086838D01*
X0109093Y0086821D01*
Y0088193D01*
D02*
G37*
%LPD*%
D10*
X0102500Y0115499D02*
Y0112500D01*
Y0115499D02*
X0101215D01*
X0100786Y0115357D01*
X0100643Y0115214D01*
X0100500Y0114928D01*
Y0114642D01*
X0100643Y0114357D01*
X0100786Y0114214D01*
X0101215Y0114071D01*
X0102500D02*
X0101215D01*
X0100786Y0113928D01*
X0100643Y0113785D01*
X0100500Y0113500D01*
Y0113071D01*
X0100643Y0112786D01*
X0100786Y0112643D01*
X0101215Y0112500D01*
X0102500D01*
X0099543Y0115499D02*
X0097972D01*
X0098829Y0114357D01*
X0098401D01*
X0098115Y0114214D01*
X0097972Y0114071D01*
X0097830Y0113643D01*
Y0113357D01*
X0097972Y0112928D01*
X0098258Y0112643D01*
X0098687Y0112500D01*
X0099115D01*
X0099543Y0112643D01*
X0099686Y0112786D01*
X0099829Y0113071D01*
X0096301Y0115499D02*
X0096730Y0115357D01*
X0097015Y0114928D01*
X0097158Y0114214D01*
Y0113785D01*
X0097015Y0113071D01*
X0096730Y0112643D01*
X0096301Y0112500D01*
X0096016D01*
X0095587Y0112643D01*
X0095302Y0113071D01*
X0095159Y0113785D01*
Y0114214D01*
X0095302Y0114928D01*
X0095587Y0115357D01*
X0096016Y0115499D01*
X0096301D01*
X0094345Y0114785D02*
Y0114928D01*
X0094202Y0115214D01*
X0094059Y0115357D01*
X0093773Y0115499D01*
X0093202D01*
X0092916Y0115357D01*
X0092774Y0115214D01*
X0092631Y0114928D01*
Y0114642D01*
X0092774Y0114357D01*
X0093059Y0113928D01*
X0094487Y0112500D01*
X0092488D01*
X0089531D02*
X0090674Y0115499D01*
X0091817Y0112500D01*
X0091388Y0113500D02*
X0089960D01*
X0086475Y0115499D02*
Y0112500D01*
Y0115499D02*
X0085332Y0112500D01*
X0084190Y0115499D02*
X0085332Y0112500D01*
X0084190Y0115499D02*
Y0112500D01*
X0081333Y0115071D02*
X0081619Y0115357D01*
X0082047Y0115499D01*
X0082619D01*
X0083047Y0115357D01*
X0083333Y0115071D01*
Y0114785D01*
X0083190Y0114500D01*
X0083047Y0114357D01*
X0082761Y0114214D01*
X0081904Y0113928D01*
X0081619Y0113785D01*
X0081476Y0113643D01*
X0081333Y0113357D01*
Y0112928D01*
X0081619Y0112643D01*
X0082047Y0112500D01*
X0082619D01*
X0083047Y0112643D01*
X0083333Y0112928D01*
X0078162Y0114785D02*
Y0114928D01*
X0078020Y0115214D01*
X0077877Y0115357D01*
X0077591Y0115499D01*
X0077020D01*
X0076734Y0115357D01*
X0076591Y0115214D01*
X0076448Y0114928D01*
Y0114642D01*
X0076591Y0114357D01*
X0076877Y0113928D01*
X0078305Y0112500D01*
X0076306D01*
X0074777Y0115499D02*
X0075206Y0115357D01*
X0075492Y0114928D01*
X0075634Y0114214D01*
Y0113785D01*
X0075492Y0113071D01*
X0075206Y0112643D01*
X0074777Y0112500D01*
X0074492D01*
X0074063Y0112643D01*
X0073778Y0113071D01*
X0073635Y0113785D01*
Y0114214D01*
X0073778Y0114928D01*
X0074063Y0115357D01*
X0074492Y0115499D01*
X0074777D01*
X0072963Y0114928D02*
X0072678Y0115071D01*
X0072249Y0115499D01*
Y0112500D01*
X0069050Y0115071D02*
X0069193Y0115357D01*
X0069621Y0115499D01*
X0069907D01*
X0070335Y0115357D01*
X0070621Y0114928D01*
X0070764Y0114214D01*
Y0113500D01*
X0070621Y0112928D01*
X0070335Y0112643D01*
X0069907Y0112500D01*
X0069764D01*
X0069336Y0112643D01*
X0069050Y0112928D01*
X0068907Y0113357D01*
Y0113500D01*
X0069050Y0113928D01*
X0069336Y0114214D01*
X0069764Y0114357D01*
X0069907D01*
X0070335Y0114214D01*
X0070621Y0113928D01*
X0070764Y0113500D01*
X0130898Y0116602D02*
G03*
X0128730Y0117500I-0002168J-0002168D01*
G01*
X0068732D02*
G03*
X0066629Y0116629I0000000J-0002975D01*
G01*
X0065898Y0115898D02*
G03*
X0065000Y0113730I0002168J-0002168D01*
G01*
Y0038770D02*
G03*
X0065898Y0036602I0003066J0000000D01*
G01*
X0066602Y0035898D02*
G03*
X0068770Y0035000I0002168J0002168D01*
G01*
X0128730D02*
G03*
X0130898Y0035898I0000000J0003066D01*
G01*
X0131602Y0036602D02*
G03*
X0132500Y0038770I-0002168J0002168D01*
G01*
Y0113730D02*
G03*
X0131602Y0115898I-0003066J0000000D01*
G01*
X0065898D02*
X0066629Y0116629D01*
X0065000Y0038770D02*
Y0113730D01*
X0065898Y0036602D02*
X0066602Y0035898D01*
X0068770Y0035000D02*
X0128730D01*
X0130898Y0035898D02*
X0131602Y0036602D01*
X0132500Y0038770D02*
Y0113730D01*
X0130898Y0116602D02*
X0131602Y0115898D01*
X0068732Y0117500D02*
X0128730D01*
D11*
X0072970Y0064770D02*
D03*
D12*
X0081970D02*
D03*
X0099060Y0038855D02*
D03*
Y0057665D02*
D03*
X0104140Y0073080D02*
D03*
X0129540Y0064080D02*
D03*
Y0073080D02*
D03*
X0124460D02*
D03*
Y0064080D02*
D03*
X0119380D02*
D03*
Y0073080D02*
D03*
X0114300D02*
D03*
Y0064080D02*
D03*
X0109220D02*
D03*
Y0073080D02*
D03*
X0129540Y0079320D02*
D03*
Y0088320D02*
D03*
X0124460D02*
D03*
Y0079320D02*
D03*
X0119380D02*
D03*
Y0088320D02*
D03*
X0114300D02*
D03*
Y0079320D02*
D03*
X0109220D02*
D03*
Y0088320D02*
D03*
D13*
X0073660Y0053380D02*
D03*
D14*
Y0058380D02*
D03*
D15*
X0083820Y0054630D02*
D03*
X0099060Y0066040D02*
D03*
Y0063500D02*
D03*
D16*
X0083820Y0057130D02*
D03*
D17*
X0099060Y0068580D02*
D03*
D18*
X0071120Y0043180D02*
D03*
X0086420D02*
D03*
X0127000D02*
D03*
X0111700D02*
D03*
X0071120Y0073660D02*
D03*
X0086420D02*
D03*
X0127000Y0055880D02*
D03*
X0111700D02*
D03*
X0127000Y0096520D02*
D03*
X0111700D02*
D03*
X0127000Y0109220D02*
D03*
X0111700D02*
D03*
D19*
X0091440Y0059055D02*
D03*
D20*
Y0062230D02*
D03*
D21*
X0102870Y0080010D02*
D03*
Y0082550D02*
D03*
Y0085090D02*
D03*
Y0087630D02*
D03*
X0095250Y0080010D02*
D03*
Y0082550D02*
D03*
Y0085090D02*
D03*
D22*
Y0087630D02*
D03*
D23*
X0084540Y0101920D02*
D03*
D24*
X0087840Y0098620D02*
D03*
X0081240D02*
D03*
Y0105220D02*
D03*
X0087840D02*
D03*
D25*
X0104140Y0064080D02*
D03*
D26*
X0085090Y0086360D02*
D03*
D27*
Y0088900D02*
D03*
D28*
X0097560Y0096520D02*
D03*
X0100560D02*
D03*
D29*
X0097460Y0093980D02*
D03*
X0100660D02*
D03*
X0097460Y0091440D02*
D03*
X0100660D02*
D03*
D30*
X0091440Y0067130D02*
D03*
Y0070030D02*
D03*
X0091694Y0081862D02*
D03*
Y0084762D02*
D03*
D31*
X0091440Y0062230D02*
Y0067130D01*
X0100560Y0094080D02*
X0100660Y0093980D01*
X0100560Y0094080D02*
Y0096520D01*
X0071120Y0066620D02*
X0072970Y0064770D01*
X0071120Y0066620D02*
Y0073660D01*
X0086420D01*
X0099060Y0068580D02*
Y0073660D01*
X0100330Y0074930D01*
Y0080159D01*
X0102721Y0082550D01*
X0102870D01*
X0097790Y0087630D02*
X0102870D01*
X0095250D02*
X0097790D01*
Y0076380D02*
Y0087630D01*
X0091440Y0070030D02*
X0097790Y0076380D01*
X0090350Y0070030D02*
X0091440D01*
X0085090Y0064770D02*
X0090350Y0070030D01*
X0081970Y0064770D02*
X0085090D01*
X0081970Y0058980D02*
X0082570Y0058380D01*
X0081970Y0058980D02*
Y0064770D01*
X0086420Y0073660D02*
X0087050Y0073030D01*
X0073660Y0058380D02*
X0082570D01*
X0102870Y0082550D02*
Y0085090D01*
X0082570Y0058380D02*
X0083820Y0057130D01*
X0109220Y0064080D02*
Y0068000D01*
X0104140Y0073080D02*
X0109220Y0068000D01*
X0100660Y0089840D02*
Y0091440D01*
Y0089840D02*
X0102870Y0087630D01*
X0090170Y0085090D02*
X0095250D01*
X0084540Y0090720D02*
X0090170Y0085090D01*
X0084540Y0090720D02*
Y0101920D01*
X0099060Y0057665D02*
Y0063500D01*
X0114279Y0073101D02*
X0114300Y0073080D01*
X0109241Y0073101D02*
X0114279D01*
X0109220Y0073080D02*
X0109241Y0073101D01*
X0119376Y0064084D02*
X0119380Y0064080D01*
X0114304Y0064084D02*
X0119376D01*
X0114300Y0064080D02*
X0114304Y0064084D01*
X0119380Y0073080D02*
X0124460D01*
Y0064080D02*
X0129540D01*
Y0073080D02*
Y0079320D01*
X0109220D02*
X0114300D01*
X0119359Y0088341D02*
X0119380Y0088320D01*
X0114321Y0088341D02*
X0119359D01*
X0114300Y0088320D02*
X0114321Y0088341D01*
X0129519D02*
X0129540Y0088320D01*
X0124481Y0088341D02*
X0129519D01*
X0124460Y0088320D02*
X0124481Y0088341D01*
X0119380Y0079320D02*
X0119384Y0079324D01*
X0124456D01*
X0124460Y0079320D01*
X0100660Y0091440D02*
Y0093980D01*
X0095020Y0087860D02*
X0095250Y0087630D01*
M02*
