G04 Layer_Color=128*
%FSAX43Y43*%
%MOMM*%
G71*
G01*
G75*
%ADD10C,0.254*%
%ADD63C,0.127*%
D10*
X0130898Y0116602D02*
G03*
X0128730Y0117500I-0002168J-0002168D01*
G01*
X0068732D02*
G03*
X0066629Y0116629I0000000J-0002975D01*
G01*
X0065898Y0115898D02*
G03*
X0065000Y0113730I0002168J-0002168D01*
G01*
Y0038770D02*
G03*
X0065898Y0036602I0003066J0000000D01*
G01*
X0066602Y0035898D02*
G03*
X0068770Y0035000I0002168J0002168D01*
G01*
X0128730D02*
G03*
X0130898Y0035898I0000000J0003066D01*
G01*
X0131602Y0036602D02*
G03*
X0132500Y0038770I-0002168J0002168D01*
G01*
Y0113730D02*
G03*
X0131602Y0115898I-0003066J0000000D01*
G01*
X0065898D02*
X0066629Y0116629D01*
X0065000Y0038770D02*
Y0113730D01*
X0065898Y0036602D02*
X0066602Y0035898D01*
X0068770Y0035000D02*
X0128730D01*
X0130898Y0035898D02*
X0131602Y0036602D01*
X0132500Y0038770D02*
Y0113730D01*
X0130898Y0116602D02*
X0131602Y0115898D01*
X0068732Y0117500D02*
X0128730D01*
D63*
X0072395Y0064770D02*
X0073545D01*
X0072970Y0064195D02*
Y0065345D01*
X0081395Y0064770D02*
X0082545D01*
X0081970Y0064195D02*
Y0065345D01*
X0073210Y0053380D02*
X0074110D01*
X0073660Y0052930D02*
Y0053830D01*
X0073210Y0058380D02*
X0074110D01*
X0073660Y0057930D02*
Y0058830D01*
X0098485Y0038855D02*
X0099635D01*
X0099060Y0038280D02*
Y0039430D01*
X0098485Y0057665D02*
X0099635D01*
X0099060Y0057090D02*
Y0058240D01*
X0083420Y0054630D02*
X0084220D01*
X0083820Y0054230D02*
Y0055030D01*
X0083420Y0057130D02*
X0084220D01*
X0083820Y0056730D02*
Y0057530D01*
X0098560Y0068580D02*
X0099560D01*
X0099060Y0068080D02*
Y0069080D01*
X0098560Y0066040D02*
X0099560D01*
X0099060Y0065540D02*
Y0066540D01*
X0098560Y0063500D02*
X0099560D01*
X0099060Y0063000D02*
Y0064000D01*
X0070120Y0043180D02*
X0072120D01*
X0071120Y0042180D02*
Y0044180D01*
X0085420Y0043180D02*
X0087420D01*
X0086420Y0042180D02*
Y0044180D01*
X0090995Y0059055D02*
X0091884D01*
X0091440Y0058611D02*
Y0059500D01*
X0090995Y0062230D02*
X0091884D01*
X0091440Y0061785D02*
Y0062674D01*
X0126000Y0043180D02*
X0128000D01*
X0127000Y0042180D02*
Y0044180D01*
X0110700Y0043180D02*
X0112700D01*
X0111700Y0042180D02*
Y0044180D01*
X0070120Y0073660D02*
X0072120D01*
X0071120Y0072660D02*
Y0074660D01*
X0085420Y0073660D02*
X0087420D01*
X0086420Y0072660D02*
Y0074660D01*
X0102420Y0080010D02*
X0103320D01*
X0102870Y0079560D02*
Y0080460D01*
X0102420Y0082550D02*
X0103320D01*
X0102870Y0082100D02*
Y0083000D01*
X0102420Y0085090D02*
X0103320D01*
X0102870Y0084640D02*
Y0085540D01*
X0102420Y0087630D02*
X0103320D01*
X0102870Y0087180D02*
Y0088080D01*
X0094800Y0080010D02*
X0095700D01*
X0095250Y0079560D02*
Y0080460D01*
X0094800Y0082550D02*
X0095700D01*
X0095250Y0082100D02*
Y0083000D01*
X0094800Y0085090D02*
X0095700D01*
X0095250Y0084640D02*
Y0085540D01*
X0094800Y0087630D02*
X0095700D01*
X0095250Y0087180D02*
Y0088080D01*
X0083940Y0101920D02*
X0085140D01*
X0084540Y0101320D02*
Y0102520D01*
X0087090Y0098620D02*
X0088590D01*
X0087840Y0097870D02*
Y0099370D01*
X0080490Y0098620D02*
X0081990D01*
X0081240Y0097870D02*
Y0099370D01*
X0080490Y0105220D02*
X0081990D01*
X0081240Y0104470D02*
Y0105970D01*
X0087090Y0105220D02*
X0088590D01*
X0087840Y0104470D02*
Y0105970D01*
X0126000Y0055880D02*
X0128000D01*
X0127000Y0054880D02*
Y0056880D01*
X0110700Y0055880D02*
X0112700D01*
X0111700Y0054880D02*
Y0056880D01*
X0103565Y0064080D02*
X0104715D01*
X0104140Y0063505D02*
Y0064655D01*
X0103565Y0073080D02*
X0104715D01*
X0104140Y0072505D02*
Y0073655D01*
X0084640Y0086360D02*
X0085540D01*
X0085090Y0085910D02*
Y0086810D01*
X0084640Y0088900D02*
X0085540D01*
X0085090Y0088450D02*
Y0089350D01*
X0128965Y0064080D02*
X0130115D01*
X0129540Y0063505D02*
Y0064655D01*
X0128965Y0073080D02*
X0130115D01*
X0129540Y0072505D02*
Y0073655D01*
X0123885Y0073080D02*
X0125035D01*
X0124460Y0072505D02*
Y0073655D01*
X0123885Y0064080D02*
X0125035D01*
X0124460Y0063505D02*
Y0064655D01*
X0118805Y0064080D02*
X0119955D01*
X0119380Y0063505D02*
Y0064655D01*
X0118805Y0073080D02*
X0119955D01*
X0119380Y0072505D02*
Y0073655D01*
X0113725Y0073080D02*
X0114875D01*
X0114300Y0072505D02*
Y0073655D01*
X0113725Y0064080D02*
X0114875D01*
X0114300Y0063505D02*
Y0064655D01*
X0108645Y0064080D02*
X0109795D01*
X0109220Y0063505D02*
Y0064655D01*
X0108645Y0073080D02*
X0109795D01*
X0109220Y0072505D02*
Y0073655D01*
X0128965Y0079320D02*
X0130115D01*
X0129540Y0078745D02*
Y0079895D01*
X0128965Y0088320D02*
X0130115D01*
X0129540Y0087745D02*
Y0088895D01*
X0123885Y0088320D02*
X0125035D01*
X0124460Y0087745D02*
Y0088895D01*
X0123885Y0079320D02*
X0125035D01*
X0124460Y0078745D02*
Y0079895D01*
X0118805Y0079320D02*
X0119955D01*
X0119380Y0078745D02*
Y0079895D01*
X0118805Y0088320D02*
X0119955D01*
X0119380Y0087745D02*
Y0088895D01*
X0113725Y0088320D02*
X0114875D01*
X0114300Y0087745D02*
Y0088895D01*
X0113725Y0079320D02*
X0114875D01*
X0114300Y0078745D02*
Y0079895D01*
X0108645Y0079320D02*
X0109795D01*
X0109220Y0078745D02*
Y0079895D01*
X0108645Y0088320D02*
X0109795D01*
X0109220Y0087745D02*
Y0088895D01*
X0126000Y0096520D02*
X0128000D01*
X0127000Y0095520D02*
Y0097520D01*
X0110700Y0096520D02*
X0112700D01*
X0111700Y0095520D02*
Y0097520D01*
X0126000Y0109220D02*
X0128000D01*
X0127000Y0108220D02*
Y0110220D01*
X0110700Y0109220D02*
X0112700D01*
X0111700Y0108220D02*
Y0110220D01*
M02*
