G04 Layer_Color=16711935*
%FSAX43Y43*%
%MOMM*%
G71*
G01*
G75*
%ADD10C,0.254*%
%ADD43R,2.703X2.703*%
%ADD44C,2.703*%
%ADD45O,2.003X2.703*%
%ADD46R,2.003X2.703*%
%ADD47C,1.803*%
%ADD48R,1.803X1.803*%
%ADD49R,1.803X1.803*%
%ADD50C,4.203*%
%ADD51C,1.727*%
%ADD52R,1.727X1.727*%
%ADD53O,2.703X2.003*%
%ADD54R,2.703X2.003*%
%ADD55C,3.803*%
%ADD56C,3.703*%
%ADD57R,2.703X2.703*%
%ADD58C,2.203*%
%ADD59R,2.203X2.203*%
%ADD60R,1.353X2.003*%
%ADD61R,1.553X2.103*%
%ADD62R,2.003X1.353*%
D10*
X0130898Y0116602D02*
G03*
X0128730Y0117500I-0002168J-0002168D01*
G01*
X0068732D02*
G03*
X0066629Y0116629I0000000J-0002975D01*
G01*
X0065898Y0115898D02*
G03*
X0065000Y0113730I0002168J-0002168D01*
G01*
Y0038770D02*
G03*
X0065898Y0036602I0003066J0000000D01*
G01*
X0066602Y0035898D02*
G03*
X0068770Y0035000I0002168J0002168D01*
G01*
X0128730D02*
G03*
X0130898Y0035898I0000000J0003066D01*
G01*
X0131602Y0036602D02*
G03*
X0132500Y0038770I-0002168J0002168D01*
G01*
Y0113730D02*
G03*
X0131602Y0115898I-0003066J0000000D01*
G01*
X0065898D02*
X0066629Y0116629D01*
X0065000Y0038770D02*
Y0113730D01*
X0065898Y0036602D02*
X0066602Y0035898D01*
X0068770Y0035000D02*
X0128730D01*
X0130898Y0035898D02*
X0131602Y0036602D01*
X0132500Y0038770D02*
Y0113730D01*
X0130898Y0116602D02*
X0131602Y0115898D01*
X0068732Y0117500D02*
X0128730D01*
D43*
X0072970Y0064770D02*
D03*
D44*
X0081970D02*
D03*
X0099060Y0038855D02*
D03*
Y0057665D02*
D03*
X0104140Y0073080D02*
D03*
X0129540Y0064080D02*
D03*
Y0073080D02*
D03*
X0124460D02*
D03*
Y0064080D02*
D03*
X0119380D02*
D03*
Y0073080D02*
D03*
X0114300D02*
D03*
Y0064080D02*
D03*
X0109220D02*
D03*
Y0073080D02*
D03*
X0129540Y0079320D02*
D03*
Y0088320D02*
D03*
X0124460D02*
D03*
Y0079320D02*
D03*
X0119380D02*
D03*
Y0088320D02*
D03*
X0114300D02*
D03*
Y0079320D02*
D03*
X0109220D02*
D03*
Y0088320D02*
D03*
D45*
X0073660Y0053380D02*
D03*
D46*
Y0058380D02*
D03*
D47*
X0083820Y0054630D02*
D03*
X0099060Y0066040D02*
D03*
Y0063500D02*
D03*
D48*
X0083820Y0057130D02*
D03*
D49*
X0099060Y0068580D02*
D03*
D50*
X0071120Y0043180D02*
D03*
X0086420D02*
D03*
X0127000D02*
D03*
X0111700D02*
D03*
X0071120Y0073660D02*
D03*
X0086420D02*
D03*
X0127000Y0055880D02*
D03*
X0111700D02*
D03*
X0127000Y0096520D02*
D03*
X0111700D02*
D03*
X0127000Y0109220D02*
D03*
X0111700D02*
D03*
D51*
X0091440Y0059055D02*
D03*
D52*
Y0062230D02*
D03*
D53*
X0102870Y0080010D02*
D03*
Y0082550D02*
D03*
Y0085090D02*
D03*
Y0087630D02*
D03*
X0095250Y0080010D02*
D03*
Y0082550D02*
D03*
Y0085090D02*
D03*
D54*
Y0087630D02*
D03*
D55*
X0084540Y0101920D02*
D03*
D56*
X0087840Y0098620D02*
D03*
X0081240D02*
D03*
Y0105220D02*
D03*
X0087840D02*
D03*
D57*
X0104140Y0064080D02*
D03*
D58*
X0085090Y0086360D02*
D03*
D59*
Y0088900D02*
D03*
D60*
X0097560Y0096520D02*
D03*
X0100560D02*
D03*
D61*
X0097460Y0093980D02*
D03*
X0100660D02*
D03*
X0097460Y0091440D02*
D03*
X0100660D02*
D03*
D62*
X0091440Y0067130D02*
D03*
Y0070030D02*
D03*
X0091694Y0081862D02*
D03*
Y0084762D02*
D03*
M02*
