G04 Layer_Physical_Order=1*
G04 Layer_Color=255*
%FSAX43Y43*%
%MOMM*%
G71*
G01*
G75*
%ADD10C,0.254*%
%ADD11R,2.500X2.500*%
%ADD12C,2.500*%
%ADD13O,1.800X2.500*%
%ADD14R,1.800X2.500*%
%ADD15C,1.600*%
%ADD16R,1.600X1.600*%
%ADD17R,1.600X1.600*%
%ADD18C,4.000*%
%ADD19C,1.524*%
%ADD20R,1.524X1.524*%
%ADD21O,2.500X1.800*%
%ADD22R,2.500X1.800*%
%ADD23C,3.600*%
%ADD24C,3.500*%
%ADD25R,2.500X2.500*%
%ADD26C,2.000*%
%ADD27R,2.000X2.000*%
D10*
X0130898Y0116602D02*
G03*
X0128730Y0117500I-0002168J-0002168D01*
G01*
X0068732D02*
G03*
X0066629Y0116629I0000000J-0002975D01*
G01*
X0065898Y0115898D02*
G03*
X0065000Y0113730I0002168J-0002168D01*
G01*
Y0038770D02*
G03*
X0065898Y0036602I0003066J0000000D01*
G01*
X0066602Y0035898D02*
G03*
X0068770Y0035000I0002168J0002168D01*
G01*
X0128730D02*
G03*
X0130898Y0035898I0000000J0003066D01*
G01*
X0131602Y0036602D02*
G03*
X0132500Y0038770I-0002168J0002168D01*
G01*
Y0113730D02*
G03*
X0131602Y0115898I-0003066J0000000D01*
G01*
X0065898D02*
X0066629Y0116629D01*
X0065000Y0038770D02*
Y0113730D01*
X0065898Y0036602D02*
X0066602Y0035898D01*
X0068770Y0035000D02*
X0128730D01*
X0130898Y0035898D02*
X0131602Y0036602D01*
X0132500Y0038770D02*
Y0113730D01*
X0130898Y0116602D02*
X0131602Y0115898D01*
X0068732Y0117500D02*
X0128730D01*
D11*
X0072970Y0064770D02*
D03*
D12*
X0081970D02*
D03*
X0099060Y0038855D02*
D03*
Y0057665D02*
D03*
X0104140Y0073080D02*
D03*
X0129540Y0064080D02*
D03*
Y0073080D02*
D03*
X0124460D02*
D03*
Y0064080D02*
D03*
X0119380D02*
D03*
Y0073080D02*
D03*
X0114300D02*
D03*
Y0064080D02*
D03*
X0109220D02*
D03*
Y0073080D02*
D03*
X0129540Y0079320D02*
D03*
Y0088320D02*
D03*
X0124460D02*
D03*
Y0079320D02*
D03*
X0119380D02*
D03*
Y0088320D02*
D03*
X0114300D02*
D03*
Y0079320D02*
D03*
X0109220D02*
D03*
Y0088320D02*
D03*
D13*
X0073660Y0053380D02*
D03*
D14*
Y0058380D02*
D03*
D15*
X0083820Y0054630D02*
D03*
X0099060Y0066040D02*
D03*
Y0063500D02*
D03*
D16*
X0083820Y0057130D02*
D03*
D17*
X0099060Y0068580D02*
D03*
D18*
X0071120Y0043180D02*
D03*
X0086420D02*
D03*
X0127000D02*
D03*
X0111700D02*
D03*
X0071120Y0073660D02*
D03*
X0086420D02*
D03*
X0127000Y0055880D02*
D03*
X0111700D02*
D03*
X0127000Y0096520D02*
D03*
X0111700D02*
D03*
X0127000Y0109220D02*
D03*
X0111700D02*
D03*
D19*
X0091440Y0059055D02*
D03*
D20*
Y0062230D02*
D03*
D21*
X0102870Y0080010D02*
D03*
Y0082550D02*
D03*
Y0085090D02*
D03*
Y0087630D02*
D03*
X0095250Y0080010D02*
D03*
Y0082550D02*
D03*
Y0085090D02*
D03*
D22*
Y0087630D02*
D03*
D23*
X0084540Y0101920D02*
D03*
D24*
X0087840Y0098620D02*
D03*
X0081240D02*
D03*
Y0105220D02*
D03*
X0087840D02*
D03*
D25*
X0104140Y0064080D02*
D03*
D26*
X0085090Y0086360D02*
D03*
D27*
Y0088900D02*
D03*
M02*
