G04 Layer_Color=65535*
%FSAX43Y43*%
%MOMM*%
G71*
G01*
G75*
%ADD10C,0.254*%
%ADD32C,0.200*%
%ADD33C,0.250*%
%ADD34C,0.203*%
%ADD35C,0.600*%
%ADD36C,0.025*%
%ADD37C,0.025*%
%ADD38C,0.150*%
%ADD39R,0.666X2.360*%
%ADD40R,2.360X0.666*%
%ADD41R,2.717X0.949*%
%ADD42R,2.717X0.949*%
D10*
X0067056Y0059690D02*
X0066802Y0059944D01*
X0066294D01*
X0066040Y0059690D01*
Y0058674D01*
X0066294Y0058420D01*
X0066802D01*
X0067056Y0058674D01*
X0068325Y0058420D02*
Y0059944D01*
X0067564Y0059182D01*
X0068579D01*
X0079756Y0059690D02*
X0079502Y0059944D01*
X0078994D01*
X0078740Y0059690D01*
Y0058674D01*
X0078994Y0058420D01*
X0079502D01*
X0079756Y0058674D01*
X0081279Y0059944D02*
X0080264D01*
Y0059182D01*
X0080771Y0059436D01*
X0081025D01*
X0081279Y0059182D01*
Y0058674D01*
X0081025Y0058420D01*
X0080517D01*
X0080264Y0058674D01*
X0123241Y0091948D02*
Y0090424D01*
X0124003D01*
X0124256Y0090678D01*
Y0091694D01*
X0124003Y0091948D01*
X0123241D01*
X0125526Y0090424D02*
Y0091948D01*
X0124764Y0091186D01*
X0125780D01*
X0118161Y0091948D02*
Y0090424D01*
X0118923D01*
X0119176Y0090678D01*
Y0091694D01*
X0118923Y0091948D01*
X0118161D01*
X0119684Y0091694D02*
X0119938Y0091948D01*
X0120446D01*
X0120700Y0091694D01*
Y0091440D01*
X0120446Y0091186D01*
X0120192D01*
X0120446D01*
X0120700Y0090932D01*
Y0090678D01*
X0120446Y0090424D01*
X0119938D01*
X0119684Y0090678D01*
X0113081Y0091948D02*
Y0090424D01*
X0113843D01*
X0114096Y0090678D01*
Y0091694D01*
X0113843Y0091948D01*
X0113081D01*
X0115620Y0090424D02*
X0114604D01*
X0115620Y0091440D01*
Y0091694D01*
X0115366Y0091948D01*
X0114858D01*
X0114604Y0091694D01*
X0108001Y0091948D02*
Y0090424D01*
X0108763D01*
X0109016Y0090678D01*
Y0091694D01*
X0108763Y0091948D01*
X0108001D01*
X0109524Y0090424D02*
X0110032D01*
X0109778D01*
Y0091948D01*
X0109524Y0091694D01*
X0128321Y0091948D02*
Y0090424D01*
X0129083D01*
X0129336Y0090678D01*
Y0091694D01*
X0129083Y0091948D01*
X0128321D01*
X0130860D02*
X0129844D01*
Y0091186D01*
X0130352Y0091440D01*
X0130606D01*
X0130860Y0091186D01*
Y0090678D01*
X0130606Y0090424D01*
X0130098D01*
X0129844Y0090678D01*
X0128321Y0076708D02*
Y0075184D01*
X0129083D01*
X0129336Y0075438D01*
Y0076454D01*
X0129083Y0076708D01*
X0128321D01*
X0130860D02*
X0130352Y0076454D01*
X0129844Y0075946D01*
Y0075438D01*
X0130098Y0075184D01*
X0130606D01*
X0130860Y0075438D01*
Y0075692D01*
X0130606Y0075946D01*
X0129844D01*
X0123241Y0076708D02*
Y0075184D01*
X0124003D01*
X0124256Y0075438D01*
Y0076454D01*
X0124003Y0076708D01*
X0123241D01*
X0124764D02*
X0125780D01*
Y0076454D01*
X0124764Y0075438D01*
Y0075184D01*
X0118161Y0076708D02*
Y0075184D01*
X0118923D01*
X0119176Y0075438D01*
Y0076454D01*
X0118923Y0076708D01*
X0118161D01*
X0119684Y0076454D02*
X0119938Y0076708D01*
X0120446D01*
X0120700Y0076454D01*
Y0076200D01*
X0120446Y0075946D01*
X0120700Y0075692D01*
Y0075438D01*
X0120446Y0075184D01*
X0119938D01*
X0119684Y0075438D01*
Y0075692D01*
X0119938Y0075946D01*
X0119684Y0076200D01*
Y0076454D01*
X0119938Y0075946D02*
X0120446D01*
X0113081Y0076708D02*
Y0075184D01*
X0113843D01*
X0114096Y0075438D01*
Y0076454D01*
X0113843Y0076708D01*
X0113081D01*
X0114604Y0075438D02*
X0114858Y0075184D01*
X0115366D01*
X0115620Y0075438D01*
Y0076454D01*
X0115366Y0076708D01*
X0114858D01*
X0114604Y0076454D01*
Y0076200D01*
X0114858Y0075946D01*
X0115620D01*
X0108001Y0076708D02*
Y0075184D01*
X0108763D01*
X0109016Y0075438D01*
Y0076454D01*
X0108763Y0076708D01*
X0108001D01*
X0109524Y0075184D02*
X0110032D01*
X0109778D01*
Y0076708D01*
X0109524Y0076454D01*
X0110794D02*
X0111048Y0076708D01*
X0111556D01*
X0111810Y0076454D01*
Y0075438D01*
X0111556Y0075184D01*
X0111048D01*
X0110794Y0075438D01*
Y0076454D01*
X0103048Y0076708D02*
Y0075184D01*
X0103810D01*
X0104063Y0075438D01*
Y0076454D01*
X0103810Y0076708D01*
X0103048D01*
X0104571Y0075184D02*
X0105079D01*
X0104825D01*
Y0076708D01*
X0104571Y0076454D01*
X0105841Y0075184D02*
X0106349D01*
X0106095D01*
Y0076708D01*
X0105841Y0076454D01*
X0066040Y0065024D02*
Y0063500D01*
X0066802D01*
X0067056Y0063754D01*
Y0064770D01*
X0066802Y0065024D01*
X0066040D01*
X0067564Y0063500D02*
X0068071D01*
X0067817D01*
Y0065024D01*
X0067564Y0064770D01*
X0069849Y0063500D02*
X0068833D01*
X0069849Y0064516D01*
Y0064770D01*
X0069595Y0065024D01*
X0069087D01*
X0068833Y0064770D01*
X0110769Y0116509D02*
X0110261D01*
X0110515D01*
Y0115240D01*
X0110261Y0114986D01*
X0110007D01*
X0109753Y0115240D01*
X0111277Y0114986D02*
X0111785D01*
X0111531D01*
Y0116509D01*
X0111277Y0116255D01*
X0110769Y0103809D02*
X0110261D01*
X0110515D01*
Y0102540D01*
X0110261Y0102286D01*
X0110007D01*
X0109753Y0102540D01*
X0112293Y0102286D02*
X0111277D01*
X0112293Y0103301D01*
Y0103555D01*
X0112039Y0103809D01*
X0111531D01*
X0111277Y0103555D01*
X0110769Y0063169D02*
X0110261D01*
X0110515D01*
Y0061900D01*
X0110261Y0061646D01*
X0110007D01*
X0109753Y0061900D01*
X0111277Y0062915D02*
X0111531Y0063169D01*
X0112039D01*
X0112293Y0062915D01*
Y0062661D01*
X0112039Y0062408D01*
X0111785D01*
X0112039D01*
X0112293Y0062154D01*
Y0061900D01*
X0112039Y0061646D01*
X0111531D01*
X0111277Y0061900D01*
X0067589Y0080949D02*
X0067081D01*
X0067335D01*
Y0079680D01*
X0067081Y0079426D01*
X0066827D01*
X0066573Y0079680D01*
X0068859Y0079426D02*
Y0080949D01*
X0068097Y0080188D01*
X0069113D01*
X0110769Y0050469D02*
X0110261D01*
X0110515D01*
Y0049200D01*
X0110261Y0048946D01*
X0110007D01*
X0109753Y0049200D01*
X0112293Y0050469D02*
X0111277D01*
Y0049708D01*
X0111785Y0049961D01*
X0112039D01*
X0112293Y0049708D01*
Y0049200D01*
X0112039Y0048946D01*
X0111531D01*
X0111277Y0049200D01*
X0067589Y0050469D02*
X0067081D01*
X0067335D01*
Y0049200D01*
X0067081Y0048946D01*
X0066827D01*
X0066573Y0049200D01*
X0069113Y0050469D02*
X0068605Y0050215D01*
X0068097Y0049708D01*
Y0049200D01*
X0068351Y0048946D01*
X0068859D01*
X0069113Y0049200D01*
Y0049454D01*
X0068859Y0049708D01*
X0068097D01*
X0089687Y0065379D02*
Y0063856D01*
X0090703D01*
X0092227Y0065379D02*
X0091211D01*
Y0063856D01*
X0092227D01*
X0091211Y0064617D02*
X0091719D01*
X0092734Y0065379D02*
Y0063856D01*
X0093496D01*
X0093750Y0064110D01*
Y0065125D01*
X0093496Y0065379D01*
X0092734D01*
X0094258Y0063856D02*
X0094766D01*
X0094512D01*
Y0065379D01*
X0094258Y0065125D01*
X0083972Y0091034D02*
Y0092557D01*
X0084734D01*
X0084988Y0092303D01*
Y0091795D01*
X0084734Y0091541D01*
X0083972D01*
X0085496Y0091034D02*
X0086004D01*
X0085750D01*
Y0092557D01*
X0085496Y0092303D01*
X0056718Y0110007D02*
Y0111531D01*
X0057480D01*
X0057734Y0111277D01*
Y0110769D01*
X0057480Y0110515D01*
X0056718D01*
X0059257Y0110007D02*
X0058242D01*
X0059257Y0111023D01*
Y0111277D01*
X0059003Y0111531D01*
X0058496D01*
X0058242Y0111277D01*
X0094996Y0068834D02*
Y0069850D01*
X0094742Y0070104D01*
X0094234D01*
X0093980Y0069850D01*
Y0068834D01*
X0094234Y0068580D01*
X0094742D01*
X0094488Y0069088D02*
X0094996Y0068580D01*
X0094742D02*
X0094996Y0068834D01*
X0095504Y0068580D02*
X0096011D01*
X0095757D01*
Y0070104D01*
X0095504Y0069850D01*
X0093980Y0058420D02*
Y0059944D01*
X0094742D01*
X0094996Y0059690D01*
Y0059182D01*
X0094742Y0058928D01*
X0093980D01*
X0094488D02*
X0094996Y0058420D01*
X0095504Y0059690D02*
X0095757Y0059944D01*
X0096265D01*
X0096519Y0059690D01*
Y0059436D01*
X0096265Y0059182D01*
X0096011D01*
X0096265D01*
X0096519Y0058928D01*
Y0058674D01*
X0096265Y0058420D01*
X0095757D01*
X0095504Y0058674D01*
X0094158Y0091465D02*
Y0090195D01*
X0094412Y0089941D01*
X0094920D01*
X0095173Y0090195D01*
Y0091465D01*
X0095681Y0089941D02*
X0096189D01*
X0095935D01*
Y0091465D01*
X0095681Y0091211D01*
X0130898Y0116602D02*
G03*
X0128730Y0117500I-0002168J-0002168D01*
G01*
X0068732D02*
G03*
X0066629Y0116629I0000000J-0002975D01*
G01*
X0065898Y0115898D02*
G03*
X0065000Y0113730I0002168J-0002168D01*
G01*
Y0038770D02*
G03*
X0065898Y0036602I0003066J0000000D01*
G01*
X0066602Y0035898D02*
G03*
X0068770Y0035000I0002168J0002168D01*
G01*
X0128730D02*
G03*
X0130898Y0035898I0000000J0003066D01*
G01*
X0131602Y0036602D02*
G03*
X0132500Y0038770I-0002168J0002168D01*
G01*
Y0113730D02*
G03*
X0131602Y0115898I-0003066J0000000D01*
G01*
X0065898D02*
X0066629Y0116629D01*
X0065000Y0038770D02*
Y0113730D01*
X0065898Y0036602D02*
X0066602Y0035898D01*
X0068770Y0035000D02*
X0128730D01*
X0130898Y0035898D02*
X0131602Y0036602D01*
X0132500Y0038770D02*
Y0113730D01*
X0130898Y0116602D02*
X0131602Y0115898D01*
X0068732Y0117500D02*
X0128730D01*
D32*
X0078660Y0055880D02*
G03*
X0078660Y0055880I-0005000J0000000D01*
G01*
X0086970D02*
G03*
X0086970Y0055880I-0003150J0000000D01*
G01*
X0098425Y0088970D02*
G03*
X0099695Y0088970I0000635J0000000D01*
G01*
X0075152Y0065950D02*
X0079787D01*
Y0063590D02*
Y0065950D01*
X0075152Y0063590D02*
X0079787D01*
X0075152D02*
Y0065950D01*
X0096460Y0041010D02*
Y0055510D01*
X0101660Y0041010D02*
Y0055510D01*
X0096460D02*
X0101660D01*
X0096460Y0041010D02*
X0101660D01*
X0097130Y0071240D02*
X0101730D01*
X0097130Y0060840D02*
X0101730D01*
X0097130D02*
Y0071240D01*
X0101730Y0060840D02*
Y0071240D01*
X0101230Y0060840D02*
Y0071240D01*
X0066445Y0047480D02*
X0069020D01*
X0066420Y0038980D02*
Y0047480D01*
Y0038980D02*
X0068995D01*
X0069020Y0048080D02*
X0088520D01*
X0069020Y0038280D02*
Y0048080D01*
Y0038280D02*
X0088520D01*
Y0048080D01*
X0129100Y0038880D02*
X0131675D01*
X0131700D02*
Y0047380D01*
X0129125D02*
X0131700D01*
X0109600Y0038280D02*
X0129100D01*
Y0048080D01*
X0109600D02*
X0129100D01*
X0109600Y0038280D02*
Y0048080D01*
X0066445Y0077960D02*
X0069020D01*
X0066420Y0069460D02*
Y0077960D01*
Y0069460D02*
X0068995D01*
X0069020Y0078560D02*
X0088520D01*
X0069020Y0068760D02*
Y0078560D01*
Y0068760D02*
X0088520D01*
Y0078560D01*
X0096410Y0078670D02*
X0101710D01*
X0099695Y0088970D02*
X0101710D01*
X0096410D02*
X0098425D01*
X0101710Y0078670D02*
Y0088970D01*
X0096410Y0078670D02*
Y0088970D01*
X0068459Y0095504D02*
Y0096954D01*
Y0106554D01*
X0077359Y0095504D02*
Y0108004D01*
Y0109154D02*
X0091459D01*
X0077359Y0108004D02*
Y0109154D01*
X0068459Y0108004D02*
X0077359D01*
X0068459Y0106554D02*
Y0108004D01*
X0056559Y0106554D02*
X0068459D01*
X0056559Y0096954D02*
Y0106554D01*
Y0096954D02*
X0068459D01*
Y0095504D02*
X0077359D01*
Y0094354D02*
Y0095504D01*
Y0094354D02*
X0091459D01*
Y0109154D01*
X0129100Y0051580D02*
X0131675D01*
X0131700D02*
Y0060080D01*
X0129125D02*
X0131700D01*
X0109600Y0050980D02*
X0129100D01*
Y0060780D01*
X0109600D02*
X0129100D01*
X0109600Y0050980D02*
Y0060780D01*
X0102960Y0066262D02*
Y0070897D01*
X0105320D01*
Y0066262D02*
Y0070897D01*
X0102960Y0066262D02*
X0105320D01*
X0086360Y0085090D02*
Y0090170D01*
X0083820D02*
X0086360D01*
X0083820Y0085090D02*
Y0090170D01*
Y0085090D02*
X0086360D01*
X0128180Y0065980D02*
X0130900D01*
X0128180D02*
Y0071180D01*
X0130900D01*
Y0065980D02*
Y0071180D01*
X0123100D02*
X0125820D01*
Y0065980D02*
Y0071180D01*
X0123100Y0065980D02*
X0125820D01*
X0123100D02*
Y0071180D01*
X0118020Y0065980D02*
X0120740D01*
X0118020D02*
Y0071180D01*
X0120740D01*
Y0065980D02*
Y0071180D01*
X0112940D02*
X0115660D01*
Y0065980D02*
Y0071180D01*
X0112940Y0065980D02*
X0115660D01*
X0112940D02*
Y0071180D01*
X0107860Y0065980D02*
X0110580D01*
X0107860D02*
Y0071180D01*
X0110580D01*
Y0065980D02*
Y0071180D01*
X0128180Y0081220D02*
X0130900D01*
X0128180D02*
Y0086420D01*
X0130900D01*
Y0081220D02*
Y0086420D01*
X0123100D02*
X0125820D01*
Y0081220D02*
Y0086420D01*
X0123100Y0081220D02*
X0125820D01*
X0123100D02*
Y0086420D01*
X0118020Y0081220D02*
X0120740D01*
X0118020D02*
Y0086420D01*
X0120740D01*
Y0081220D02*
Y0086420D01*
X0112940D02*
X0115660D01*
Y0081220D02*
Y0086420D01*
X0112940Y0081220D02*
X0115660D01*
X0112940D02*
Y0086420D01*
X0107860Y0081220D02*
X0110580D01*
X0107860D02*
Y0086420D01*
X0110580D01*
Y0081220D02*
Y0086420D01*
X0129100Y0092220D02*
X0131675D01*
X0131700D02*
Y0100720D01*
X0129125D02*
X0131700D01*
X0109600Y0091620D02*
X0129100D01*
Y0101420D01*
X0109600D02*
X0129100D01*
X0109600Y0091620D02*
Y0101420D01*
X0129100Y0104920D02*
X0131675D01*
X0131700D02*
Y0113420D01*
X0129125D02*
X0131700D01*
X0109600Y0104320D02*
X0129100D01*
Y0114120D01*
X0109600D02*
X0129100D01*
X0109600Y0104320D02*
Y0114120D01*
D33*
X0099185Y0071890D02*
G03*
X0099185Y0071890I-0000125J0000000D01*
G01*
X0095375Y0088930D02*
G03*
X0095375Y0088930I-0000125J0000000D01*
G01*
D34*
X0092899Y0059418D02*
G03*
X0089981Y0059418I-0001459J0001225D01*
G01*
X0089981Y0059418D02*
X0090673D01*
X0092177Y0059411D02*
X0092887D01*
D35*
X0097710Y0087970D02*
G03*
X0097710Y0087970I-0000300J0000000D01*
G01*
D36*
X0061659Y0101754D02*
G03*
X0061659Y0101754I-0001000J0000000D01*
G01*
D37*
X0068459Y0095504D02*
Y0096954D01*
Y0106554D01*
X0056559Y0096954D02*
Y0106554D01*
Y0096954D02*
X0068459D01*
X0056559Y0106554D02*
X0068459D01*
Y0108004D01*
X0077359D01*
Y0095504D02*
Y0108004D01*
X0068459Y0095504D02*
X0077359D01*
Y0108004D02*
Y0109154D01*
X0091459D01*
Y0094354D02*
Y0109154D01*
X0077359Y0094354D02*
X0091459D01*
X0077359D02*
Y0095504D01*
D38*
X0073660Y0062345D02*
Y0061345D01*
X0074160Y0061845D02*
X0073160D01*
X0083820Y0060530D02*
Y0059530D01*
X0084320Y0060030D02*
X0083320D01*
D39*
X0079454Y0064770D02*
D03*
D40*
X0104140Y0070564D02*
D03*
D41*
X0129541Y0066454D02*
D03*
X0119381D02*
D03*
X0109221D02*
D03*
X0129541Y0081695D02*
D03*
X0119381D02*
D03*
X0109221D02*
D03*
D42*
X0124459Y0070706D02*
D03*
X0114299D02*
D03*
X0124459Y0085946D02*
D03*
X0114299D02*
D03*
M02*
